<svg xmlns="http://www.w3.org/2000/svg" viewBox="0 0 45.25 45.13"><defs><style>.cls-1{fill:none;stroke:#d6d6d6;stroke-miterlimit:10;stroke-width:0.25px;}.cls-2{fill:#afce9b;}.cls-3{fill:#959596;}.cls-4{fill:#94c9a9;}</style></defs><g id="Слой_2" data-name="Слой 2"><g id="Слой_2-2" data-name="Слой 2"><path class="cls-1" d="M.13,12.89h45V45H.13Z"/><path class="cls-2" d="M.13,3.72h45v9.17H.13Z"/><path class="cls-3" d="M9.56,0h2.91V7.43H9.56Z"/><path class="cls-3" d="M21.17,0h2.91V7.43H21.17Z"/><path class="cls-3" d="M32.79,0H35.7V7.43H32.79Z"/><circle class="cls-4" cx="8.45" cy="19.79" r="2.45"/><circle class="cls-4" cx="17.9" cy="19.79" r="2.45"/><circle class="cls-4" cx="27.35" cy="19.79" r="2.45"/><circle class="cls-4" cx="36.8" cy="19.79" r="2.45"/><circle class="cls-4" cx="8.45" cy="28.95" r="2.45"/><circle class="cls-4" cx="17.9" cy="28.95" r="2.45"/><circle class="cls-4" cx="27.35" cy="28.95" r="2.45"/><circle class="cls-4" cx="36.8" cy="28.95" r="2.45"/><circle class="cls-4" cx="8.45" cy="38.1" r="2.45"/><circle class="cls-4" cx="17.9" cy="38.1" r="2.45"/><circle class="cls-4" cx="27.35" cy="38.1" r="2.45"/><circle class="cls-4" cx="36.8" cy="38.1" r="2.45"/></g></g></svg>