<svg xmlns="http://www.w3.org/2000/svg" viewBox="0 0 40 45"><defs><style>.cls-1{fill:#80c196;}.cls-2{fill:#afce9b;}.cls-3{fill:#d6e5ca;}.cls-4{fill:#e6f9d9;}.cls-5{fill:#f4efea;}.cls-6{fill:#fdfaf4;}.cls-7{fill:#d8e2d0;}</style></defs><g id="Слой_2" data-name="Слой 2"><g id="Слой_2-2" data-name="Слой 2"><path class="cls-1" d="M30.85,0H15.43l-.91,22.59L15.43,45H30.85l.91-22.5Z"/><path class="cls-2" d="M0,0H15.43V45H0Z"/><path class="cls-3" d="M23.75,29.31a8.2,8.2,0,0,0-8.32-8l-.91,5.89.91,4.66h8.32Z"/><path class="cls-4" d="M15.43,21.27a8.19,8.19,0,0,0-8.32,8v2.51h8.32Z"/><path class="cls-5" d="M21.7,17.84a6.17,6.17,0,0,0-6.27-6.06l-.91,6.06.91,6.07A6.18,6.18,0,0,0,21.7,17.84Z"/><path class="cls-6" d="M15.43,11.78a6.18,6.18,0,0,0-6.28,6.06,6.18,6.18,0,0,0,6.28,6.07h0Z"/><path class="cls-2" d="M30.85,30l4.58.88L40,30V15l-4.57-.88L30.85,15Z"/><path class="cls-4" d="M40,15V5.71A5.82,5.82,0,0,0,34.09,0H30.85V15Z"/><path class="cls-7" d="M40,39.29V30H30.85V45h3.63A5.81,5.81,0,0,0,40,39.29Z"/></g></g></svg>