<?xml version="1.0" encoding="utf-8"?>
<!-- Generator: Adobe Illustrator 24.1.1, SVG Export Plug-In . SVG Version: 6.00 Build 0)  -->
<svg version="1.1" id="Слой_1" xmlns="http://www.w3.org/2000/svg" xmlns:xlink="http://www.w3.org/1999/xlink" x="0px" y="0px"
	 viewBox="0 0 35 45" style="enable-background:new 0 0 35 45;" xml:space="preserve">
<style type="text/css">
	.st0{fill:#AFCE9B;}
	.st1{fill:#80C196;}
	.st2{fill:#C8E0B8;}
	.st3{fill:#FBF4F4;}
	.st4{fill:#E2E5E8;}
</style>
<g id="Слой_2_1_">
	<g id="Слой_2-2">
		<g id="Docs">
			<path class="st0" d="M35,11.9l-9.4-2.6L22.9,0H4C1.8,0,0,1.8,0,4v37c0,2.2,1.8,4,4,4h27c2.2,0,4-1.8,4-4V11.9z"/>
			<path class="st1" d="M35,11.9V41c0,2.2-1.8,4-4,4H17.5V0h5.4l2.7,9.2L35,11.9z"/>
			<path class="st2" d="M35,11.9h-9.4c-1.5,0-2.7-1.2-2.7-2.6V0c0.4,0,0.7,0.1,1,0.4l10.8,10.5C34.9,11.2,35,11.5,35,11.9z"/>
			<path class="st3" d="M25.6,21.2H9.4c-0.7,0-1.3-0.6-1.3-1.3c0-0.7,0.6-1.3,1.3-1.3c0,0,0,0,0,0h16.2c0.7,0,1.3,0.6,1.3,1.3
				S26.3,21.2,25.6,21.2C25.6,21.2,25.6,21.2,25.6,21.2z"/>
			<path class="st3" d="M25.6,26.5H9.4c-0.7,0-1.3-0.6-1.3-1.3c0-0.7,0.6-1.3,1.3-1.3c0,0,0,0,0,0h16.2c0.7,0,1.3,0.6,1.3,1.3
				S26.3,26.5,25.6,26.5C25.6,26.5,25.6,26.5,25.6,26.5z"/>
			<path class="st3" d="M25.6,31.7H9.4c-0.7,0-1.3-0.6-1.3-1.3c0-0.7,0.6-1.3,1.3-1.3c0,0,0,0,0,0h16.2c0.7,0,1.3,0.6,1.3,1.3
				S26.3,31.7,25.6,31.7C25.6,31.7,25.6,31.7,25.6,31.7z"/>
			<path class="st3" d="M20.2,37H9.4c-0.7,0.1-1.4-0.5-1.4-1.2c-0.1-0.7,0.5-1.4,1.2-1.4c0.1,0,0.2,0,0.2,0h10.8
				c0.7-0.1,1.4,0.5,1.4,1.2c0.1,0.7-0.5,1.4-1.2,1.4C20.3,37,20.3,37,20.2,37z"/>
		</g>
		<g id="Docs-2">
			<path class="st4" d="M17.5,37h2.7c0.7,0.1,1.4-0.5,1.4-1.2c0.1-0.7-0.5-1.4-1.2-1.4c-0.1,0-0.2,0-0.2,0h-2.7V37z"/>
			<path class="st4" d="M17.5,31.7h8.1c0.7,0,1.3-0.6,1.3-1.3s-0.6-1.3-1.3-1.3c0,0,0,0,0,0h-8.1V31.7z"/>
			<path class="st4" d="M17.5,26.5h8.1c0.7,0,1.3-0.6,1.3-1.3s-0.6-1.3-1.3-1.3c0,0,0,0,0,0h-8.1V26.5z"/>
			<path class="st4" d="M17.5,21.2h8.1c0.7,0,1.3-0.6,1.3-1.3s-0.6-1.3-1.3-1.3c0,0,0,0,0,0h-8.1V21.2z"/>
		</g>
	</g>
</g>
</svg>
