<svg xmlns="http://www.w3.org/2000/svg" viewBox="0 0 45 35"><defs><style>.cls-1{fill:#80c196;}.cls-2{fill:#ebeff1;}.cls-3{fill:#afce9b;}</style></defs><g id="Слой_2" data-name="Слой 2"><g id="Слой_2-2" data-name="Слой 2"><path class="cls-1" d="M2.84,0H13.6a2,2,0,0,1,1.71,1l1.77,2.4a2,2,0,0,0,1.71,1H45V31.74a2.62,2.62,0,0,1-2.63,2.61H2.63A2.62,2.62,0,0,1,0,31.74V7.39A19.29,19.29,0,0,1,.93,1.46h0A2,2,0,0,1,2.84,0Z"/><rect class="cls-2" x="4.1" y="3.91" width="34.59" height="14.49"/><path class="cls-3" d="M43,1.3H32.18a2,2,0,0,0-1.79,1.14l-1.85,4a2,2,0,0,1-1.8,1.14H0V32.4A2.62,2.62,0,0,0,2.63,35H42.37A2.62,2.62,0,0,0,45,32.4V3.26A2,2,0,0,0,43,1.3Z"/></g></g></svg>