<svg xmlns="http://www.w3.org/2000/svg" viewBox="0 0 25 25"><defs><style>.cls-1{fill:#4c4c4c;}</style></defs><title>Ресурс 17</title><g id="Слой_2" data-name="Слой 2"><g id="Слой_2-2" data-name="Слой 2"><path class="cls-1" d="M3,0A3,3,0,0,0,.08,3,3,3,0,0,0,3,6,3,3,0,0,0,5.92,3,3,3,0,0,0,3,0ZM3,4.82A1.83,1.83,0,0,1,1.19,3,1.83,1.83,0,0,1,3,1.13,1.83,1.83,0,0,1,4.81,3,1.83,1.83,0,0,1,3,4.82Z"/><path class="cls-1" d="M12.46,0A3,3,0,0,0,9.54,3a2.93,2.93,0,1,0,5.85,0A3,3,0,0,0,12.46,0Zm0,4.82A1.83,1.83,0,0,1,10.65,3a1.81,1.81,0,1,1,3.62,0A1.83,1.83,0,0,1,12.46,4.82Z"/><path class="cls-1" d="M22.08,6A3,3,0,0,0,25,3a2.93,2.93,0,1,0-5.85,0A3,3,0,0,0,22.08,6Zm0-4.82A1.85,1.85,0,1,1,20.27,3,1.84,1.84,0,0,1,22.08,1.13Z"/><path class="cls-1" d="M2.92,15.49a3,3,0,0,0,0-6,3,3,0,0,0,0,6Zm0-4.82a1.85,1.85,0,0,1,0,3.69,1.85,1.85,0,0,1,0-3.69Z"/><path class="cls-1" d="M12.39,15.49a3,3,0,1,0-2.93-3A2.95,2.95,0,0,0,12.39,15.49Zm0-4.82a1.85,1.85,0,1,1-1.81,1.85A1.84,1.84,0,0,1,12.39,10.67Z"/><path class="cls-1" d="M22,15.49a3,3,0,1,0-2.92-3A2.95,2.95,0,0,0,22,15.49Zm0-4.82a1.85,1.85,0,1,1-1.81,1.85A1.83,1.83,0,0,1,22,10.67Z"/><path class="cls-1" d="M3,19.05A3,3,0,0,0,3,25a3,3,0,0,0,0-5.95Zm0,4.82a1.85,1.85,0,0,1,0-3.69,1.85,1.85,0,0,1,0,3.69Z"/><path class="cls-1" d="M12.45,19.05a3,3,0,1,0,2.93,3A2.95,2.95,0,0,0,12.45,19.05Zm0,4.82A1.85,1.85,0,1,1,14.26,22,1.83,1.83,0,0,1,12.45,23.87Z"/><path class="cls-1" d="M22.07,19.05A3,3,0,1,0,25,22,3,3,0,0,0,22.07,19.05Zm0,4.82A1.85,1.85,0,1,1,23.88,22,1.83,1.83,0,0,1,22.07,23.87Z"/></g></g></svg>