<?xml version="1.0" encoding="utf-8"?>
<!-- Generator: Adobe Illustrator 24.1.1, SVG Export Plug-In . SVG Version: 6.00 Build 0)  -->
<svg version="1.1" xmlns="http://www.w3.org/2000/svg" xmlns:xlink="http://www.w3.org/1999/xlink" x="0px" y="0px"
	 viewBox="0 0 582.7 404.4" style="enable-background:new 0 0 582.7 404.4;" xml:space="preserve">
<style type="text/css">
	.st0{fill:#B9CEEB;}
	.st1{opacity:0.4;clip-path:url(#SVGID_2_);fill:url(#SVGID_3_);}
	.st2{opacity:0.4;fill:url(#SVGID_4_);}
	.st3{fill:#75AAAA;}
	.st4{fill:#94C9A9;}
	.st5{fill:#C7F0DB;}
	.st6{fill:#6076C2;}
	.st7{fill:#FFFFFF;}
	.st8{opacity:0.44;fill:#C7F0DB;}
	.st9{fill:#EF907B;}
	.st10{opacity:0.4;clip-path:url(#SVGID_6_);fill:url(#SVGID_7_);}
	.st11{fill:#4A63A0;}
	.st12{fill:#EFC3A5;}
	.st13{fill:#AA2643;}
	.st14{opacity:0.4;clip-path:url(#SVGID_9_);fill:url(#SVGID_10_);}
	.st15{opacity:0.4;clip-path:url(#SVGID_12_);fill:url(#SVGID_13_);}
	.st16{opacity:0.4;clip-path:url(#SVGID_15_);fill:url(#SVGID_16_);}
	.st17{fill:#101B48;}
	.st18{fill:#EDEDED;}
	.st19{clip-path:url(#SVGID_18_);}
	.st20{opacity:0.4;clip-path:url(#SVGID_20_);fill:url(#SVGID_21_);}
	.st21{fill:#BCBCBC;}
	.st22{fill:#9E9E9E;}
	.st23{fill:#566FB7;}
	.st24{clip-path:url(#SVGID_23_);}
	.st25{opacity:0.4;clip-path:url(#SVGID_25_);fill:url(#SVGID_26_);}
	.st26{fill:#283965;}
	.st27{fill:#304572;}
	.st28{clip-path:url(#SVGID_28_);}
	.st29{opacity:0.4;clip-path:url(#SVGID_30_);fill:url(#SVGID_31_);}
	.st30{fill:#C6ECAE;}
	.st31{fill:#80C196;}
	.st32{opacity:0.13;fill:#6076C2;}
	.st33{clip-path:url(#SVGID_33_);}
	.st34{opacity:0.4;clip-path:url(#SVGID_35_);fill:url(#SVGID_36_);}
	.st35{clip-path:url(#SVGID_38_);}
	.st36{opacity:0.4;clip-path:url(#SVGID_40_);fill:url(#SVGID_41_);}
	.st37{opacity:0.4;clip-path:url(#SVGID_43_);fill:url(#SVGID_44_);}
	.st38{fill:#7C96E0;}
	.st39{clip-path:url(#SVGID_46_);}
	.st40{opacity:0.4;clip-path:url(#SVGID_48_);fill:url(#SVGID_49_);}
</style>
<g id="BACKGROUND">
</g>
<g id="OBJECTS">
	<g>
		<g>
			<g>
				<path class="st0" d="M372.6,175.4c-2.6,3.4-5.4,6.6-8.6,9.8c-4.7,4.7-9.1,9.6-13.4,14.6c-14.6,17.4-26.3,37-36.2,57.4
					c-7.7,15.9-12.1,32.9-19.9,48.7c-0.6,1.3-1.3,2.5-1.9,3.8c-7.1,13.5-16.2,26-27,36.7c-13.1,13.1-28.9,23.6-46,31.1
					c-36.6,16-79.6,18.7-116.9,5.5c-0.3-0.1-0.5-0.2-0.8-0.3c-39-14-55.9-41.2-62.8-66.3c-8-29.2-2.5-55.7-2.5-55.7
					s20.7-73.2,49.6-103.6c6.3-6.6,15.2-12.4,25.7-17.8c37.4-19.1,94.9-32,125.8-54.2c36-25.8,76.6-37.4,111.3-21.8
					c0.3,0.1,0.6,0.3,0.9,0.4c3.1,1.4,6.2,3.1,9.3,5c0,0,0,0,0,0c0.7,0.4,1.3,0.9,2,1.3c0.1,0.1,0.3,0.2,0.4,0.3
					c7.1,4.9,12.9,11,17.5,17.9c2.8,4.3,5.1,8.9,6.9,13.7c1.1,3.1,2.1,6.4,2.7,9.7C392.8,132,388.1,155.1,372.6,175.4z"/>
				<g>
					<defs>
						<path id="SVGID_1_" d="M372.7,175.8c-2.6,3.4-5.4,6.6-8.6,9.8c-4.7,4.7-9.1,9.6-13.4,14.6c-14.6,17.4-26.3,37-36.2,57.4
							c-7.7,15.9-12.1,32.9-19.9,48.7c-0.6,1.3-1.3,2.5-1.9,3.8c-7.1,13.5-16.2,26-27,36.7c-13.1,13.1-28.9,23.6-46,31.1
							c-36.6,16-79.6,18.7-116.9,5.5c-0.3-0.1-0.5-0.2-0.8-0.3c-39-14-55.9-41.2-62.8-66.3c-8-29.2-2.5-55.7-2.5-55.7
							S57.5,188,86.3,157.7c28.9-30.4,111.9-43.6,151.5-72c36-25.8,76.6-37.4,111.3-21.8c0.3,0.1,0.6,0.3,0.9,0.4
							c3.1,1.4,6.2,3.1,9.3,5c0,0,0,0,0,0c0.7,0.4,1.3,0.9,2,1.3c0.1,0.1,0.3,0.2,0.4,0.3c7.1,4.9,12.9,11,17.5,17.9
							c2.8,4.3,5.1,8.9,6.9,13.7C394.2,124.9,390.8,152.2,372.7,175.8z"/>
					</defs>
					<clipPath id="SVGID_2_">
						<use xlink:href="#SVGID_1_"  style="overflow:visible;"/>
					</clipPath>
					<radialGradient id="SVGID_3_" cx="69.3126" cy="102.7724" r="212.9527" gradientUnits="userSpaceOnUse">
						<stop  offset="0" style="stop-color:#4B596D;stop-opacity:0"/>
						<stop  offset="1" style="stop-color:#B9CEEB"/>
					</radialGradient>
					<path class="st1" d="M428.5,143.4c8.6-18.7-18.3-113.4-23.5-131.5C399.8-6.2-1.9,106-6.4,129.5c-4.5,23.6,60,267.2,60,276.3
						c0,9,222.7-33.2,235.3-33.2s59.8-110.3,71.4-110.3C372,262.4,425.9,148.9,428.5,143.4z"/>
				</g>
				<path class="st0" d="M300.6,52.9c-11.9,2.4-23.5,6-34.6,11c-0.4,0.2-0.1,0.9,0.4,0.7c11.1-4.9,22.5-8.5,34.4-10.9
					C301.3,53.6,301.1,52.8,300.6,52.9z"/>
			</g>
			<radialGradient id="SVGID_4_" cx="212.4319" cy="251.6357" r="159.8865" gradientUnits="userSpaceOnUse">
				<stop  offset="0" style="stop-color:#4B596D;stop-opacity:0"/>
				<stop  offset="1" style="stop-color:#B9EFFF"/>
			</radialGradient>
			<path class="st2" d="M372.6,175.4c-2.6,3.4-5.4,6.6-8.6,9.8c-4.7,4.7-9.1,9.6-13.4,14.6c-14.6,17.4-26.3,37-36.2,57.4
				c-7.7,15.9-12.1,32.9-19.9,48.7c-0.6,1.3-1.3,2.5-1.9,3.8c-7.1,13.5-16.2,26-27,36.7c-13.1,13.1-28.9,23.6-46,31.1
				c-36.6,16-79.6,18.7-116.9,5.5c-0.3-0.1-0.5-0.2-0.8-0.3c-38.2-13.7-55.1-40-62.3-64.6c-0.2-0.5-0.3-1.1-0.5-1.6
				c-1.8-6.6-2.9-13.1-3.6-19.2c-0.1-1-0.2-1.9-0.3-2.8c-1.6-19.3,1.4-33.7,1.4-33.7s20.7-73.2,49.6-103.6
				c6.3-6.6,15.2-12.4,25.7-17.8c10.6,8.8,22.4,16.3,34.8,22.4c24.1,12,50.2,19.4,76.4,25.4c10.8,2.5,51.6,5.4,60.5,3.6
				c76-14.6,91.9-74.8,105.1-79.2C392.8,132,388.1,155.1,372.6,175.4z"/>
		</g>
		<g>
			<path class="st3" d="M290.3,156.8c0,15.3-12.4,27.7-27.7,27.7c-8.7,0-16.4-4-21.5-10.3c-3.9-4.8-6.2-10.8-6.2-17.4
				c0-15.3,12.4-27.7,27.7-27.7c4,0,7.8,0.8,11.2,2.4C283.5,135.8,290.3,145.5,290.3,156.8z"/>
			<path class="st4" d="M280,148.9c0,15.3-12.4,27.7-27.7,27.7c-4,0-7.8-0.8-11.2-2.4c-3.9-4.8-6.2-10.8-6.2-17.4
				c0-15.3,12.4-27.7,27.7-27.7c4,0,7.8,0.8,11.2,2.4C277.7,136.2,280,142.3,280,148.9z"/>
		</g>
		<path class="st0" d="M311.2,279.6c-3.9,13.7-10.2,26.3-18.8,37.6c-0.3,0.4,0.4,0.8,0.7,0.4c8.6-11.3,15-24,18.9-37.7
			C312,279.3,311.3,279.1,311.2,279.6z"/>
		<g>
			<path class="st5" d="M284.3,87.1c0,0.1,0,0.2,0,0.4c-0.2,4.7-4,8.4-8.8,8.4c-2.4,0-4.6-1-6.1-2.5c-0.3-0.3-0.5-0.5-0.7-0.8
				c-0.7-0.9-1.3-2-1.6-3.2c0.2-0.1,0.3-0.2,0.4-0.2l-0.4-0.9c0,0-0.1,0.1-0.2,0.1c-0.1-0.4-0.1-0.8-0.1-1.2c0-4.8,3.9-8.8,8.8-8.8
				c3.3,0,6.1,1.8,7.6,4.5c-0.2,0.1-0.3,0.1-0.4,0.2l0.4,0.9c0.1-0.1,0.3-0.1,0.4-0.2c0.3,0.8,0.6,1.7,0.6,2.6
				C284.3,86.6,284.3,86.9,284.3,87.1z"/>
			<g>
				<g>
					<path class="st5" d="M267.5,89.2c-0.1,0.1-0.3,0.1-0.4,0.2c-0.1-0.3-0.2-0.7-0.2-1c0.1-0.1,0.2-0.1,0.2-0.1L267.5,89.2z"/>
					<path class="st5" d="M283.6,83.8c-0.2,0.1-0.3,0.1-0.4,0.2l-0.4-0.9c0.1,0,0.2-0.1,0.4-0.2C283.3,83.1,283.5,83.4,283.6,83.8z"
						/>
					<path class="st6" d="M288.6,83.8c0.1,1-1.7,2.3-4.3,3.7c-4.2,2.3-10.5,4.7-14.9,5.9c-0.9,0.3-1.7,0.5-2.4,0.6
						c-1.2,0.3-2.1,0.4-2.8,0.4c-1,0-1.5-0.3-1.7-0.8c-0.9-2.6,3.2-4.8,4.3-5.3c0.1,0.3,0.1,0.7,0.2,1c-1.4,0.7-4,2.4-3.5,3.9
						c0.4,0.3,2.4,0.1,5.1-0.7c3.6-1,8.5-2.8,13-4.9c1-0.5,1.9-0.9,2.6-1.3c2.7-1.5,3.3-2.3,3.3-2.5c0-0.4-0.2-0.5-0.3-0.6
						c-0.7-0.4-2.4,0-3.6,0.5c-0.1-0.3-0.3-0.6-0.4-0.9c0.9-0.4,3.3-1.2,4.5-0.4C288.2,82.7,288.5,83.2,288.6,83.8z"/>
				</g>
			</g>
		</g>
		<circle class="st7" cx="232.3" cy="106.6" r="1.1"/>
		<circle class="st7" cx="316.5" cy="89.4" r="1.1"/>
		<circle class="st7" cx="292.3" cy="112.9" r="1.1"/>
		<circle class="st7" cx="273" cy="270.7" r="1.1"/>
		<circle class="st7" cx="277.2" cy="202.8" r="1.1"/>
		<circle class="st7" cx="298.7" cy="251.6" r="1.1"/>
		<path class="st7" d="M209.6,127.2c0,0.6-0.5,1.1-1.1,1.1s-1.1-0.5-1.1-1.1c0-0.6,0.5-1.1,1.1-1.1S209.6,126.6,209.6,127.2z"/>
		<path class="st7" d="M313.7,137c0,0.6-0.5,1.1-1.1,1.1c-0.6,0-1.1-0.5-1.1-1.1s0.5-1.1,1.1-1.1C313.2,135.9,313.7,136.4,313.7,137
			z"/>
		<circle class="st7" cx="263.2" cy="241.9" r="1.1"/>
		<circle class="st7" cx="322.1" cy="205.9" r="1.1"/>
		<circle class="st7" cx="310.4" cy="68.3" r="1.1"/>
	</g>
	<path class="st8" d="M391.1,186.9C391.2,187,391.2,187,391.1,186.9C391.1,186.9,391.1,186.9,391.1,186.9z"/>
	<g>
		<g>
			<path class="st9" d="M159.7,114c0,0-3.8-10.5-15-10.2c-11.2,0.3-39.2,0.7-47.4,13.8C89.2,130.8,86.9,140,70.1,139
				c-16.8-1-24.7,22.6-18.4,30.7c-10.5-7-33.2,10.7-20.7,30.5c-23.7,7.6-34.9,44.1-1,67.7c33.9,23.7,63.8-1.3,63.8-1.3l70.1-21.7
				l30.9-18.1l26,16.1l20.7-25.6l-12.8-46.8L202,150.3c0,0-4.2-20.5-24.3-15.5C178.6,122.3,173.7,110.8,159.7,114z"/>
			<g>
				<defs>
					<path id="SVGID_5_" d="M159.5,114.2c0,0-3.2-10.7-14.3-10.4c-11.2,0.3-39.2,0.7-47.4,13.8C89.5,130.8,87.2,140,70.5,139
						c-16.8-1-24.7,22.6-18.4,30.7c-10.5-7-33.2,10.7-20.7,30.5c-23.7,7.6-34.9,44.1-1,67.7c33.9,23.7,63.8-1.3,63.8-1.3l70.1-21.7
						l30.9-18.1l26,16.1l20.7-25.6L229,170.6l-26.6-20.3c0,0-4.2-20.5-24.3-15.5C178,121.7,173.1,110.8,159.5,114.2z"/>
				</defs>
				<clipPath id="SVGID_6_">
					<use xlink:href="#SVGID_5_"  style="overflow:visible;"/>
				</clipPath>
				<radialGradient id="SVGID_7_" cx="16.322" cy="132.469" r="129.728" gradientUnits="userSpaceOnUse">
					<stop  offset="1.063830e-02" style="stop-color:#EF597B;stop-opacity:0"/>
					<stop  offset="1" style="stop-color:#F05F66"/>
				</radialGradient>
				<path class="st10" d="M254,186.3c4.5-9.7-59.5-68.4-64.8-76.6C127.8,13.9-31.4,207.5-33.7,219.8c-2.4,12.3,97.4,69.1,97.4,73.8
					c0,4.7,58.6-41.8,65.1-41.8c6.6,0,76.4,26.4,82.5,26.4C217.3,278.1,252.7,189.2,254,186.3z"/>
			</g>
			<path class="st9" d="M70.3,136.3c-6.7,1-13.2,2.4-18,7.4c-4.1,4.3-6.3,10-7.6,15.7c-0.1,0.5,0.6,0.7,0.7,0.2
				c1.3-5.6,3.4-11.1,7.4-15.3c4.7-5,11.2-6.2,17.7-7.2C71,136.9,70.8,136.2,70.3,136.3z"/>
			<path class="st9" d="M26.7,195.4c-4-5.1-2.5-10.5-1-16.2c0.1-0.5-0.6-0.7-0.7-0.2c-1.7,6.1-3.1,11.6,1.2,17
				C26.5,196.3,27,195.8,26.7,195.4z"/>
			<path class="st9" d="M16.9,205c-6.8,4.8-11.7,10.3-11.2,19c0,0.5,0.8,0.5,0.8,0c-0.5-8.5,4.3-13.8,10.8-18.4
				C17.7,205.3,17.3,204.7,16.9,205z"/>
		</g>
		<path class="st11" d="M109.9,208.6c0,0,21.9-12.7,51.5-8l2.7,16.8c0,0-0.7,22.3-49.8,15C111.6,221.3,109.9,208.6,109.9,208.6z"/>
		<g>
			<path class="st12" d="M169,180.6c-1.6,9.5-16.6,13.6-16.6,13.6l2.5,15.6l0.4,2.6c-12.8,10.4-37.5,1.2-37.5,1.2l-11.5-53.8
				c7-1.9,31.7-9.9,34.2-30.7c5.2,7.8,18.3,11.4,25,12.7C166.6,152.5,170.4,172.4,169,180.6z"/>
			<g>
				<g>
					<path class="st13" d="M148.6,154.1c1.8,3.9,3.7,7.9,5.5,11.8c0.3,0.6,0.5,1.1,0.8,1.7c0.1-0.4,0.3-0.7,0.4-1.1
						c-1.8,0.5-3.6,1-5.3,1.6c-0.9,0.3-0.5,1.7,0.4,1.4c1.8-0.5,3.6-1,5.3-1.6c0.5-0.1,0.7-0.7,0.4-1.1c-1.8-3.9-3.7-7.9-5.5-11.8
						c-0.3-0.6-0.5-1.1-0.8-1.7C149.5,152.4,148.2,153.2,148.6,154.1L148.6,154.1z"/>
				</g>
			</g>
			<g>
				<g>
					<path class="st13" d="M133.5,168.9c1,3.6,4,6.9,7.6,7.9c1.9,0.6,3.9,0.5,5.8,0.2c0.9-0.2,0.5-1.6-0.4-1.4
						c-2.8,0.5-5.7,0.1-7.9-1.7c-1.5-1.2-2.5-2.7-3.3-4.4c-0.1-0.2,0,0-0.1-0.1c0-0.1-0.1-0.1-0.1-0.2c0-0.1-0.1-0.2-0.1-0.3
						c0-0.1-0.1-0.2-0.1-0.3C134.7,167.6,133.2,168,133.5,168.9L133.5,168.9z"/>
				</g>
			</g>
			<g>
				<g>
					<path class="st13" d="M129.6,155c1.8,0,3.6,0,5.4,0c0.3,0,0.5,0,0.8,0c1,0,1-1.5,0-1.5c-1.8,0-3.6,0-5.4,0c-0.3,0-0.5,0-0.8,0
						C128.6,153.5,128.6,155,129.6,155L129.6,155z"/>
				</g>
			</g>
			<path class="st13" d="M160.4,150.6c0,1.7-0.6,3-1.4,3c-0.8,0-1.4-1.4-1.4-3c0-1.7,0.6-3,1.4-3
				C159.8,147.6,160.4,148.9,160.4,150.6z"/>
			<circle class="st12" cx="105.1" cy="168.9" r="9.3"/>
			<g>
				<g>
					<path class="st13" d="M98.8,169.9c0.9-1.1,2.2-2,3.4-2.7c2.9-1.4,6-0.8,8.5,1.1c0.8,0.6,1.8-0.5,1.1-1.1
						c-1.6-1.2-3.4-2.1-5.4-2.3c-1.5-0.2-3.1,0.2-4.5,0.8c-1.6,0.7-3.1,1.8-4.2,3.1C97.2,169.6,98.2,170.7,98.8,169.9L98.8,169.9z"
						/>
				</g>
			</g>
			<g>
				<g>
					<path class="st13" d="M106.6,166.4c0,0.1,0.1,0.3,0.1,0.4c0,0.1,0-0.2,0-0.1c0,0,0,0.1,0,0.1c0,0.1,0,0.2,0,0.2
						c0,0.2,0,0.4,0,0.6c0,0,0,0.1,0,0.1c0,0.1,0-0.2,0-0.1c0,0.1,0,0.1,0,0.2c0,0.1-0.1,0.2-0.1,0.4c0,0.1-0.1,0.2-0.1,0.4
						c0,0-0.1,0.2,0,0.1c0-0.1-0.1,0.1-0.1,0.1c-0.1,0.1-0.1,0.3-0.2,0.4c0,0.1-0.1,0.1-0.1,0.2c0,0,0,0.1-0.1,0.1
						c0,0-0.1,0.1,0,0.1c0-0.1-0.1,0.1-0.1,0.1c-0.1,0.1-0.1,0.1-0.2,0.2c-0.1,0.1-0.3,0.3-0.4,0.4c-0.2,0.2-0.2,0.2-0.4,0.3
						c-0.2,0.1-0.4,0.3-0.6,0.4c-0.5,0.3-1.1,0.5-1.6,0.7c-0.4,0.1-0.6,0.5-0.5,0.9c0.1,0.4,0.5,0.7,0.9,0.5
						c1.8-0.6,3.6-1.6,4.6-3.3c0.5-0.9,0.8-2,0.7-3.1c0-0.3-0.1-0.5-0.1-0.8c-0.1-0.4-0.5-0.6-0.9-0.5
						C106.8,165.6,106.5,166,106.6,166.4L106.6,166.4z"/>
				</g>
			</g>
			<g>
				<defs>
					<path id="SVGID_8_" d="M136.7,166.9c0,2.7-2.2,4.8-4.8,4.8c-2.7,0-4.8-2.2-4.8-4.8c0-2.7,2.2-4.8,4.8-4.8
						C134.5,162.1,136.7,164.2,136.7,166.9z"/>
				</defs>
				<clipPath id="SVGID_9_">
					<use xlink:href="#SVGID_8_"  style="overflow:visible;"/>
				</clipPath>
				<radialGradient id="SVGID_10_" cx="105.9551" cy="132.0779" r="35.8417" gradientUnits="userSpaceOnUse">
					<stop  offset="1.063830e-02" style="stop-color:#EF597B;stop-opacity:0"/>
					<stop  offset="1" style="stop-color:#EF907B"/>
				</radialGradient>
				<path class="st14" d="M161.6,153.5c2.5-5.4-5.3-32.6-6.7-37.8c-1.5-5.2-59.3,15.8-60.6,22.6c-1.3,6.8,11.8,46,11.8,48.6
					c0,2.6,12.3,0.8,15.9,0.8c3.6,0,16.6,0,20,0S160.8,155.1,161.6,153.5z"/>
			</g>
			<g>
				<defs>
					<path id="SVGID_11_" d="M154.9,209.8c-13.5,1.5-18.4-13-18.4-13l16-2.6L154.9,209.8z"/>
				</defs>
				<clipPath id="SVGID_12_">
					<use xlink:href="#SVGID_11_"  style="overflow:visible;"/>
				</clipPath>
				<radialGradient id="SVGID_13_" cx="116.9365" cy="144.4623" r="57.3957" gradientUnits="userSpaceOnUse">
					<stop  offset="1.063830e-02" style="stop-color:#EF597B;stop-opacity:0"/>
					<stop  offset="1" style="stop-color:#EF907B"/>
				</radialGradient>
				<path class="st15" d="M206,178.8c4-8.6-8.4-52.2-10.8-60.6c-2.4-8.3-94.9,25.3-97,36.2c-2.1,10.9,19,73.6,19,77.8
					c0,4.2,19.7,1.4,25.5,1.4c5.8,0,26.7,0,32,0C180,233.6,204.8,181.4,206,178.8z"/>
			</g>
			<g>
				<defs>
					<path id="SVGID_14_" d="M168,162.1c0,2.7-2.2,4.8-4.8,4.8c-2.7,0-4.8-2.2-4.8-4.8c0-2.7,2.2-4.8,4.8-4.8
						C165.8,157.2,168,159.4,168,162.1z"/>
				</defs>
				<clipPath id="SVGID_15_">
					<use xlink:href="#SVGID_14_"  style="overflow:visible;"/>
				</clipPath>
				<radialGradient id="SVGID_16_" cx="121.7552" cy="131.0746" r="35.8417" gradientUnits="userSpaceOnUse">
					<stop  offset="1.063830e-02" style="stop-color:#EF597B;stop-opacity:0"/>
					<stop  offset="1" style="stop-color:#EF907B"/>
				</radialGradient>
				<path class="st16" d="M177.4,152.5c2.5-5.4-5.3-32.6-6.7-37.8c-1.5-5.2-59.3,15.8-60.6,22.6c-1.3,6.8,11.8,46,11.8,48.6
					c0,2.6,12.3,0.8,15.9,0.8c3.6,0,16.6,0,20,0S176.6,154.1,177.4,152.5z"/>
			</g>
		</g>
		<g>
			<g>
				<path class="st11" d="M254,234.1c-1.7,21.9-4.1,46.2-25.6,49.8c-21.5,3.6-35.8-11.8-35.8-11.8l20.3-32.2l6.5-34.3l1.9-10
					l0.4-1.9l6.5-34.1l20.1,3.9c0,0,2.6,17.2,4.4,35.8c0,0.3,0.1,0.5,0.1,0.8c0.4,3.7,0.7,7.5,0.9,11.2
					C254.2,219.9,254.4,228,254,234.1z"/>
				<g>
					<g>
						<path class="st17" d="M226,222c-0.9,11.3-1.8,22.7-2.7,34c-0.1,1.6-0.3,3.2-0.4,4.8c0,0.5,0.7,0.5,0.8,0
							c0.9-11.3,1.8-22.7,2.7-34c0.1-1.6,0.3-3.2,0.4-4.8C226.8,221.5,226.1,221.5,226,222L226,222z"/>
					</g>
				</g>
				<g>
					<path class="st18" d="M253.6,211.3c-8.3,1.9-19.9,0.3-29.9-5.4c-1.8-1-3.3,0.6-4.4-0.3l1.9-10c1.3-0.4,2.4-0.6,2.4-0.6
						s11.9,6.7,29,4.4c0,0.3,0.1,0.5,0.1,0.8C253,203.8,253.4,207.6,253.6,211.3z"/>
					<path class="st9" d="M252.7,200c-12.5,3.6-24.8-2.4-31.1-6.3l6.5-34.1l20.1,3.9C248.2,163.5,250.9,181.2,252.7,200z"/>
				</g>
			</g>
			<g>
				<defs>
					<path id="SVGID_17_" d="M253.6,211.3c-0.3-3.7-0.6-7.5-0.9-11.2c-8.9,3.4-22.4-1.7-22.4-1.7l-17,41.4l-20.3,32.2
						c0,0,14.3,15.4,35.8,11.8c21.5-3.6,23.6-27.9,25.2-49.8C254.4,228,254.2,219.9,253.6,211.3z"/>
				</defs>
				<clipPath id="SVGID_18_">
					<use xlink:href="#SVGID_17_"  style="overflow:visible;"/>
				</clipPath>
				<g class="st19">
					<defs>
						<path id="SVGID_19_" d="M359,156.7c-2.6,3.4-5.4,6.6-8.6,9.8c-4.7,4.7-9.1,9.6-13.4,14.6c-14.6,17.4-26.3,37-36.2,57.4
							c-7.7,15.9-12.1,32.9-19.9,48.7c-0.6,1.3-1.3,2.5-1.9,3.8c-7.1,13.5-16.2,26-27,36.7c-13.1,13.1-28.9,23.6-46,31.1
							c-36.6,16-79.6,18.7-116.9,5.5c-0.3-0.1-0.5-0.2-0.8-0.3c-39-14-55.9-41.2-62.8-66.3c-8-29.2-2.5-55.7-2.5-55.7
							s20.7-73.2,49.6-103.6c28.9-30.4,131.7-48.9,171.3-77.3c8.3-6,14.1,21,19.6,27.2c7.5,8.4,48.4,21.7,63.9-22.2
							c1.2-3.3,15.1-18,18.1-16.1c0,0,0,0,0,0c0.7,0.4,1.3,0.9,2,1.3c0.1,0.1,0.3,0.2,0.4,0.3c7.1,4.9,12.9,11,17.5,17.9
							c2.8,4.3,5.1,8.9,6.9,13.7C380.5,105.7,377.1,133.1,359,156.7z"/>
					</defs>
					<clipPath id="SVGID_20_">
						<use xlink:href="#SVGID_19_"  style="overflow:visible;"/>
					</clipPath>
					<radialGradient id="SVGID_21_" cx="55.5675" cy="83.6323" r="212.9527" gradientUnits="userSpaceOnUse">
						<stop  offset="0" style="stop-color:#4B596D;stop-opacity:0"/>
						<stop  offset="1" style="stop-color:#B9CEEB"/>
					</radialGradient>
					<path class="st20" d="M414.7,124.2c8.6-18.7-18.3-113.4-23.5-131.5C386.1-25.4-15.6,86.8-20.2,110.4
						c-4.5,23.6,60,267.2,60,276.3c0,9,222.7-33.2,235.3-33.2c12.6,0,59.8-110.3,71.4-110.3C358.2,243.2,412.2,129.7,414.7,124.2z"
						/>
				</g>
			</g>
		</g>
		<g>
			<path class="st7" d="M260.2,166.2c-0.4,0.4-0.9,0.6-1.4,0.6c-5.9-0.6-38-4.2-63.5-7.4c-2.7-0.3-5.3-0.7-7.8-1
				c-5.1-0.7-9.7-1.3-13.6-1.9c-1.1-0.2-2.2-0.3-3.2-0.5c-4.7-0.8-7.7-1.4-8.1-1.8c-1.3-1.2-1.2-3-0.8-4.4c0.3-1.3,1.4-2.2,2.7-2.3
				c1.5-0.1,3.7-0.3,6.6-0.5c1.2-0.1,2.4-0.2,3.7-0.3c3.8-0.3,8.4-0.6,13.4-1c2.7-0.2,5.5-0.4,8.3-0.6c22.1-1.5,49.4-3.2,63.8-3.7
				c0.7,0,1.3,0.4,1.6,1C267.3,154.3,262.7,163.2,260.2,166.2z"/>
			<path class="st18" d="M173.8,156.5c-0.3-2.3-0.7-6.7,1-9.7c-1.3,0.1-2.6,0.2-3.7,0.3c-1,1.7-1.8,4.6-0.4,9L173.8,156.5z"/>
			<path class="st18" d="M195.2,159.4c-2.7-0.3-5.3-0.7-7.8-1c-2-6.5-0.7-10.4,0.8-12.6c2.7-0.2,5.5-0.4,8.3-0.6
				C194.4,149.4,194.9,156.1,195.2,159.4z"/>
			<path class="st21" d="M259.9,167.3c0,0-0.1,0.1-0.1,0.1c-0.1,0.1-0.2,0.1-0.2,0.1l-8.5-0.8l-8.6-0.8c-8.1-13.2,0.8-24.5,0.8-24.5
				l9.4-0.2l9.2-0.2l1.2,0C269.2,160.3,261.5,166.3,259.9,167.3z"/>
			<path class="st22" d="M259.9,167.3c-0.9-1.5-1.9-4.4-2.2-9.6c-0.5-9.5,2.2-14.8,2.2-14.8s0.9-1.6,3.3-2
				C269.2,160.3,261.5,166.3,259.9,167.3z"/>
			<path class="st17" d="M263.2,153.6c0,6-3,11.4-3.9,11.4c-0.9,0-1.6-5.1-1.6-10.8c0-5.6,1.6-11.4,2.5-11.4
				C261.1,142.8,263.2,147.2,263.2,153.6z"/>
			<path class="st7" d="M252.7,141.2c-2.3,2.9-7.3,11.5-1.6,25.5l8.5,0.8c0,0,0.1,0,0.2-0.1c-1.4-4.9-4.2-17.6,2.2-26.4L252.7,141.2
				z"/>
			<path class="st17" d="M250.8,143.2c-2.7,0-5.5,0-8.2-0.1c-0.5,0-0.5,0.8,0,0.8c2.7,0,5.5,0,8.2,0.1
				C251.3,143.9,251.3,143.2,250.8,143.2z"/>
			<path class="st17" d="M249.1,146.5c-2.7,0-5.4-0.1-8.1-0.3c-0.5,0-0.5,0.7,0,0.8c2.7,0.2,5.4,0.3,8.1,0.3
				C249.6,147.3,249.6,146.5,249.1,146.5z"/>
			<path class="st17" d="M248,150.8c-2.8,0-5.7-0.1-8.5-0.2c-0.5,0-0.5,0.7,0,0.8c2.8,0.1,5.7,0.2,8.5,0.2
				C248.5,151.6,248.5,150.8,248,150.8z"/>
			<path class="st17" d="M248.2,155.9c-2.9,0.1-5.8,0.1-8.8,0.1c-0.5,0-0.5,0.7,0,0.8c2.9,0.1,5.8,0.1,8.8-0.1
				C248.7,156.6,248.7,155.8,248.2,155.9z"/>
			<path class="st17" d="M249.5,161.7c-2.9,0-5.7,0-8.6,0c-0.5,0-0.5,0.8,0,0.8c2.9,0,5.7,0,8.6,0C250,162.4,250,161.7,249.5,161.7z
				"/>
		</g>
		<g>
			<g>
				<path class="st23" d="M109.9,208.6c0,0,32.4,3.6,51.5-8c1.3,8.2,2.3,14.3,2.3,14.3s-46.4,18.5-50.5,12.7
					C111,224.3,109.9,208.6,109.9,208.6z"/>
				<path class="st23" d="M240.1,164.7c-0.2,12.3-2.3,24.6-5.6,36.3c-0.2,0.8-0.4,1.6-0.7,2.4c-0.5,1.6-0.9,3.1-1.4,4.7
					c-10.4,32.8-28.2,59.3-31.2,62.8c-0.5,0.6,1.2,6.6,1.4,7.5c0.6,3.5,1.1,7.1,1.5,10.7c1.8,14,3.2,28.1,4.4,42.1
					c1.2,13.5,3.4,27.3,3.2,40.8c0,3,0.3,8.5-2,10.8c-39.8,29.9-109,0-109,0s9.1-29.9,21.4-43.3c2-2.1,1.7-5,2.1-6.5
					c0.2-0.8,0.4-1.4,0.4-1.7c-2.2-0.5-7.2-1.5-6.7-2.6c-0.4-0.2-0.8-0.4-1.3-0.6c-16-8.8-36.8-46.9-39.7-67.6
					c-3.7-26.4,94.5-64.5,116-39.7c3.8-4.8,8.1-12.6,12.2-20.6c0.8-1.5,1.5-3.1,2.3-4.6c0.6-1.2,1.2-2.5,1.7-3.7
					c5.2-11,9-20.4,9-20.4c-6.5-1.7-7-16.5-3.2-21.2c2.8-3.5,2.9,8.4,2.9,8.4s1.6-10,5.5-11c3.8-1.1,1.1,10,1,10.7
					c0.3-0.6,1.6-7.3,6.7-7.3c2.2,0,0.6,4.3,1.6,8.6C233.6,163.8,240.1,164.7,240.1,164.7z"/>
				<g>
					<g>
						<path class="st17" d="M117.6,329c1.9,1.6,4.7,2.3,7.1,2.6c7.5,0.8,15-2.3,21.3-6c5.6-3.3,10.6-7.4,15.5-11.7
							c5-4.4,9.8-9.1,14.5-13.9c7.9-8.2,15.4-16.7,22.5-25.6c3.5-4.4,7-8.8,10.3-13.4c0.3-0.4-0.4-0.8-0.6-0.4
							c-8.6,12.1-18.3,23.5-28.4,34.4c-4.4,4.7-8.8,9.2-13.5,13.6c-5,4.7-10.1,9.3-15.7,13.2c-6.8,4.8-15,9.2-23.6,9.2
							c-2.9,0-6.8-0.6-8.9-2.5C117.8,328.2,117.2,328.7,117.6,329L117.6,329z"/>
					</g>
				</g>
				<g>
					<g>
						<path class="st17" d="M192.6,220.7c-4.5,6-9.4,11.6-14.3,17.2c-10.5,11.7-21.7,22.8-34.2,32.3c-7.1,5.4-14.6,10.3-22.8,13.9
							c-0.4,0.2-0.1,0.8,0.4,0.6c14.8-6.5,27.8-17.1,39.5-28.2c9.7-9.2,18.8-19.1,27.3-29.4c1.6-2,3.3-4,4.9-6.1
							C193.6,220.7,192.9,220.3,192.6,220.7L192.6,220.7z"/>
					</g>
				</g>
				<g>
					<g>
						<path class="st17" d="M116.3,257.4c4.3,5.5,8.7,11,13.4,16.2c1.3,1.5,2.7,3,4.3,4.3c0.4,0.3,0.9-0.2,0.5-0.5
							c-3-2.6-5.6-5.8-8.2-8.8c-2.7-3.2-5.3-6.4-7.8-9.6c-0.5-0.7-1.1-1.4-1.6-2C116.6,256.4,116,257,116.3,257.4L116.3,257.4z"/>
					</g>
				</g>
				<g>
					<g>
						<path class="st17" d="M159.2,202.9c0.6,3.5,1.1,7.1,1.7,10.6c0.1,0.5,0.2,1,0.2,1.5c0.1,0.5,0.8,0.3,0.7-0.2
							c-0.6-3.5-1.1-7.1-1.7-10.6c-0.1-0.5-0.2-1-0.2-1.5C159.9,202.2,159.2,202.4,159.2,202.9L159.2,202.9z"/>
					</g>
				</g>
				<g>
					<g>
						<path class="st17" d="M151.1,205.9c0.6,3.7,1.2,7.4,1.8,11c0.1,0.5,0.2,1,0.3,1.6c0.1,0.5,0.8,0.3,0.7-0.2
							c-0.6-3.7-1.2-7.4-1.8-11c-0.1-0.5-0.2-1-0.3-1.6C151.8,205.3,151.1,205.5,151.1,205.9L151.1,205.9z"/>
					</g>
				</g>
				<g>
					<g>
						<path class="st17" d="M142.2,208.5c0.6,3.4,1.1,6.9,1.7,10.3c0.1,0.5,0.2,1,0.2,1.5c0.1,0.5,0.8,0.3,0.7-0.2
							c-0.6-3.4-1.1-6.9-1.7-10.3c-0.1-0.5-0.2-1-0.2-1.5C142.9,207.8,142.2,208,142.2,208.5L142.2,208.5z"/>
					</g>
				</g>
				<g>
					<g>
						<path class="st17" d="M131.7,209.8c0.6,3.4,1.1,6.8,1.7,10.2c0.1,0.5,0.2,1,0.2,1.4c0.1,0.5,0.8,0.3,0.7-0.2
							c-0.6-3.4-1.1-6.8-1.7-10.2c-0.1-0.5-0.2-1-0.2-1.4C132.3,209.2,131.6,209.4,131.7,209.8L131.7,209.8z"/>
					</g>
				</g>
				<g>
					<g>
						<path class="st17" d="M122,210c0.5,3.3,1.1,6.7,1.6,10c0.1,0.5,0.2,0.9,0.2,1.4c0.1,0.5,0.8,0.3,0.7-0.2
							c-0.5-3.3-1.1-6.7-1.6-10c-0.1-0.5-0.2-0.9-0.2-1.4C122.7,209.4,121.9,209.6,122,210L122,210z"/>
					</g>
				</g>
				<g>
					<g>
						<path class="st17" d="M113.2,209.8c0.6,3.4,1.1,6.8,1.7,10.2c0.1,0.5,0.2,1,0.2,1.4c0.1,0.5,0.8,0.3,0.7-0.2
							c-0.6-3.4-1.1-6.8-1.7-10.2c-0.1-0.5-0.2-1-0.2-1.4C113.9,209.2,113.1,209.4,113.2,209.8L113.2,209.8z"/>
					</g>
				</g>
			</g>
			<g>
				<path class="st12" d="M240.1,164.7c-0.2,13.1-2.6,26.3-6.2,38.7c-12.2,2.3-21.4-3.4-26.5-7.8c6-12.5,10.8-24.1,10.8-24.1
					c-6.5-1.7-7-16.5-3.2-21.2c0.7-0.9,1.8-1.5,2.7-0.4c0.7,0.8,1.1,1.9,1.2,3c-0.1-2.3,2.6-4.7,4.6-5.2c3.8-1.1,2,5.3,1.8,6
					c0.5-2.2,1.9-4.6,4-5.9c1.1-0.7,2.9-0.9,4.2-0.5c0.5,0.2,1,0.5,1.2,0.9c0.9,1.6-0.2,3.7-0.9,5.2c-0.8,1.9-1.5,4.1-1,6.1
					C233.6,163.8,240.1,164.7,240.1,164.7z"/>
				<path class="st9" d="M226.9,163c-3.4-2.3-3-7.5-1.1-10.6c0.3-0.4-0.4-0.8-0.7-0.4c-2.2,3.5-2.4,9.1,1.3,11.6
					C226.9,163.9,227.3,163.3,226.9,163z"/>
				<path class="st9" d="M221.7,163.7c-4.3-2.4-4.1-6.7-2.9-10.9c0.1-0.5-0.6-0.7-0.7-0.2c-1.4,4.5-1.4,9.2,3.2,11.7
					C221.7,164.6,222.1,164,221.7,163.7z"/>
				<path class="st7" d="M234.6,201.1c-0.2,0.8-0.4,1.6-0.7,2.4c-0.5,1.6-0.9,3.1-1.4,4.7c-14.6,2.6-23.7-4.2-27.3-7.9
					c0.8-1.5,1.5-3.1,2.3-4.6c0.6-1.2,1.2-2.5,1.7-3.7C217.3,199.1,228.9,200.7,234.6,201.1z"/>
			</g>
		</g>
		<g>
			<g>
				<defs>
					<path id="SVGID_22_" d="M234.8,200.3c0.2-0.8,0.4-1.6,0.6-2.4c0.2-0.8,0.4-1.5,0.6-2.3c0.2-0.7,0.4-1.5,0.5-2.2
						c0.2-0.8,0.4-1.7,0.5-2.5c0.2-0.7,0.3-1.4,0.4-2.1c0.2-0.9,0.3-1.7,0.5-2.6c0.1-0.7,0.3-1.4,0.4-2.1c0.1-0.9,0.3-1.8,0.4-2.6
						c0.1-0.7,0.2-1.4,0.3-2.1c0.1-0.9,0.2-1.8,0.3-2.6c0.1-0.7,0.2-1.4,0.2-2.1c0.1-0.9,0.1-1.8,0.2-2.6c0.1-0.7,0.1-1.4,0.2-2.1
						c0.1-1,0.1-2,0.1-3c0-0.6,0.1-1.2,0.1-1.7c0,0-6.5-0.9-7.5-5.1c-0.5-2,0.2-4.2,1-6.1c0.6-1.5,1.8-3.6,0.9-5.2
						c-0.3-0.5-0.7-0.8-1.2-0.9c-1.3-0.4-3-0.2-4.2,0.5c-1.5,0.9-2.7,2.5-3.4,4.1c0,0-0.1-0.1-0.2-0.1c0.3-1.9,0.4-4.7-1.9-4.3
						c0,0-0.1,0-0.1,0c-0.1,0-0.2,0-0.3,0c-2,0.5-4.7,2.9-4.6,5.2c0,0,0,0,0-0.1c0-0.1,0-0.1,0-0.2c-0.1-1-0.5-2-1.1-2.8
						c-0.9-1.1-1.9-0.5-2.7,0.4c-0.1,0.1-0.2,0.3-0.3,0.5c-3.4,5.1-2.7,19.1,3.5,20.8c0,0-3.9,9.4-9,20.4c-0.6,1.2-1.1,2.4-1.7,3.7
						c-0.7,1.5-1.5,3.1-2.3,4.6c-4,8-8.4,15.9-12.2,20.6c0,0,0,0,0,0c0,0,0,0,0,0l0,0c-5.6-6.5-16.5-8.7-29.5-7.9
						c-0.4-2.4-1.1-6.9-2-12.4c-19.1,11.6-51.5,8-51.5,8s0.9,13.5,2.9,18.1c-21.1,9.7-37.5,22.8-35.9,33.9
						c2.9,20.6,23.7,58.7,39.7,67.6c0.4,0.2,0.8,0.5,1.3,0.6c-0.5,1.1,4.6,2,6.7,2.6c0,0.2-0.1,0.8-0.4,1.7
						c-0.4,1.5-0.1,4.4-2.1,6.5c-12.3,13.4-21.4,43.3-21.4,43.3s69.2,29.9,109,0c2.3-2.3,2-7.9,2-10.8c0.2-13.5-2-27.3-3.2-40.8
						c-1.3-14.1-2.6-28.1-4.4-42.1c-0.5-3.6-1-7.1-1.5-10.7c-0.2-0.9-1.9-6.9-1.4-7.5c0.7-0.8,2.3-2.9,4.3-6.1c1.9-2.5,2.9-4,2.9-4
						l-0.8,0.6c6.9-11.2,17.6-30.7,24.7-53.3c0.5-1.5,1-3.1,1.4-4.7c0,0,0,0,0,0c0,0,0,0,0,0c0-0.1,0-0.1,0.1-0.2
						c0.2-0.7,0.4-1.4,0.6-2.2C234.7,201,234.7,200.6,234.8,200.3z"/>
				</defs>
				<clipPath id="SVGID_23_">
					<use xlink:href="#SVGID_22_"  style="overflow:visible;"/>
				</clipPath>
				<g class="st24">
					<defs>
						<path id="SVGID_24_" d="M300.6,268.7c-2.6,3.4-5.4,6.6-8.6,9.8c-4.7,4.7-9.1,9.6-13.4,14.6c-14.6,17.4-26.3,37-36.2,57.4
							c-7.7,15.9-12.1,32.9-19.9,48.7c-0.6,1.3-1.3,2.5-1.9,3.8c-7.1,13.5-16.2,26-27,36.7c-13.1,13.1-28.9,23.6-46,31.1
							c-36.6,16-79.6,18.7-116.9,5.5c-0.3-0.1-0.5-0.2-0.8-0.3c-39-14-55.9-41.2-62.8-66.3c-8-29.2-2.5-55.7-2.5-55.7
							s20.7-73.2,49.6-103.6c28.9-30.4,131.7-48.9,171.3-77.3c8.3-6,14.1,21,19.6,27.2c7.5,8.4,48.4,21.7,63.9-22.2
							c1.2-3.3,15.1-18,18.1-16.1c0,0,0,0,0,0c0.7,0.4,1.3,0.9,2,1.3c0.1,0.1,0.3,0.2,0.4,0.3c7.1,4.9,12.9,11,17.5,17.9
							c2.8,4.3,5.1,8.9,6.9,13.7C322.1,217.8,318.7,245.1,300.6,268.7z"/>
					</defs>
					<clipPath id="SVGID_25_">
						<use xlink:href="#SVGID_24_"  style="overflow:visible;"/>
					</clipPath>
					<radialGradient id="SVGID_26_" cx="-2.7796" cy="195.6437" r="212.9527" gradientUnits="userSpaceOnUse">
						<stop  offset="0" style="stop-color:#4B596D;stop-opacity:0"/>
						<stop  offset="1" style="stop-color:#B9CEEB"/>
					</radialGradient>
					<path class="st25" d="M356.4,236.2c8.6-18.7-18.3-113.4-23.5-131.5C327.7,86.6-74,198.8-78.5,222.4
						c-4.5,23.6,60,267.2,60,276.3c0,9,222.7-33.2,235.3-33.2c12.6,0,59.8-110.3,71.4-110.3S353.8,241.7,356.4,236.2z"/>
				</g>
			</g>
			<g>
				<path class="st7" d="M208.2,326.9c-0.1,0.1-0.2,0.2-0.3,0.4c-0.2,0.2-0.4,0.4-0.6,0.6c-1.8,1.8-4.7,4.1-8.9,6.3
					c-0.2,0.1-0.4,0.2-0.7,0.3c-3.5,1.8-8,3.6-13.5,5c-0.2,0.1-0.5,0.1-0.7,0.2c-4.3,1.1-9.2,1.9-14.8,2.4c-0.3,0-0.5,0.1-0.8,0.1
					c-4.4,0.4-9.3,0.5-14.7,0.4c-0.3,0-0.5,0-0.8,0c-4.6-0.1-9.5-0.4-14.8-1c-0.2,0-0.5-0.1-0.7-0.1c-3.5-0.4-7.2-0.9-11.1-1.5
					c-0.3,0-0.5-0.1-0.8-0.1c-1-0.2-1.9-0.3-2.9-0.5c0.9-2.7,1.7-5,2.1-6.5c0.8,0.1,1.6,0.2,2.5,0.3c0.3,0,0.5,0.1,0.8,0.1
					c3.1,0.4,6.6,0.8,10.4,1c0.3,0,0.5,0,0.8,0.1c4.3,0.3,8.9,0.5,13.7,0.4h0.8c4.3-0.1,8.7-0.3,13.2-0.8c0.3,0,0.5-0.1,0.7-0.1
					c4.6-0.5,9.2-1.3,13.7-2.5c0.3-0.1,0.5-0.1,0.7-0.2c4.6-1.2,9-2.8,13.1-4.9c0.2-0.1,0.5-0.2,0.7-0.4c3.1-1.6,5.9-3.4,8.5-5.6
					c0.2-0.2,0.4-0.3,0.6-0.5c1.1-0.9,2-1.9,3-2.9C207.6,320.4,207.8,323.1,208.2,326.9z"/>
				<path class="st21" d="M127.5,333.4c-0.4,2.2-1,4.4-1.6,6.6c-0.3,0-0.5-0.1-0.8-0.1c0.6-2.2,1.2-4.4,1.6-6.6
					C127,333.4,127.2,333.4,127.5,333.4z"/>
				<path class="st21" d="M138.7,334.5c-0.4,2.4-0.7,4.7-1,7.1c-0.2,0-0.5-0.1-0.7-0.1c0.3-2.4,0.6-4.7,1-7.1
					C138.2,334.5,138.4,334.5,138.7,334.5z"/>
				<path class="st21" d="M153.2,342.7c-0.3,0-0.5,0-0.8,0c-0.1-2.6-0.1-5.1-0.1-7.7h0.8C153.1,337.5,153.1,340.1,153.2,342.7z"/>
				<path class="st21" d="M168.7,342.2c-0.3,0-0.5,0.1-0.8,0.1c-0.3-0.9-0.3-2-0.5-2.8c-0.4-1.7-0.7-3.5-1.1-5.2
					c0.3,0,0.5-0.1,0.7-0.1l0.8,4C168.1,339,168.1,341,168.7,342.2z"/>
				<path class="st21" d="M184.2,339.6c-0.2,0.1-0.5,0.1-0.7,0.2c-0.8-2.7-1.7-5.5-2.8-8.1c0.3-0.1,0.5-0.1,0.7-0.2
					C182.5,334.1,183.4,336.8,184.2,339.6z"/>
				<path class="st21" d="M198.4,334.2c-0.2,0.1-0.4,0.2-0.7,0.3c-1.2-2.6-2.2-5.3-3.2-8c0.2-0.1,0.5-0.2,0.7-0.4
					C196.2,328.9,197.2,331.6,198.4,334.2z"/>
				<path class="st21" d="M207.9,327.3c-1-2.5-2.5-4.7-3.6-7.2c-0.2,0.2-0.4,0.3-0.6,0.5c1.1,2.5,2.6,4.8,3.6,7.3L207.9,327.3z"/>
			</g>
		</g>
	</g>
	<g>
		<g>
			<g>
				<path class="st26" d="M372.6,175.4c-2.9,0.6-5.9,1-9,1c-5.1,0-9.9-0.9-14.4-2.6c-15.3-5.8-26.1-20.6-26.1-37.9
					c0-14.8,7.9-27.7,19.7-34.8c6.1-3.6,13.2-5.7,20.8-5.7h0.1c1.2,0,2.3,0.1,3.4,0.2c0.1,0,0.2,0,0.3,0c3.7,0.3,7.2,1.2,10.5,2.4
					c2.8,1.1,5.5,2.4,8,4.1C394.1,124.5,390.7,151.8,372.6,175.4z"/>
				<path class="st27" d="M372.3,143.4c-4.2,11.4-13,20.4-21.6,29c-0.5,0.5-0.9,0.9-1.4,1.4c-15.3-5.8-26.1-20.6-26.1-37.9
					c0-14.8,7.9-27.7,19.7-34.8c6.1-3.6,13.2-5.7,20.8-5.7h0.1c4.3,5.2,7.2,12.9,8.8,17.6C375.7,122.8,375.8,133.7,372.3,143.4z"/>
				<path class="st26" d="M334.5,112.5c-0.5,0.8-0.6,2,0.1,2.7c0.5,0.4,1.2,0.5,1.8,0.4c0.7-0.1,1.3-0.4,2-0.7
					c1-0.5,1.9-0.9,2.9-1.4c0.6-0.3,1.2-0.8,1.3-1.4c0.2-1.8-2.8-1.8-4-1.9C336.9,110,335.2,111.1,334.5,112.5z"/>
				<path class="st26" d="M343.5,114.2c-0.1,0.2-0.2,0.5-0.2,0.8c0,0.4,0.3,0.7,0.7,0.9c0.4,0.2,0.8,0.2,1.1,0.2
					c1.2,0,5.4-1,3.4-2.9C347.1,111.9,344.3,112.7,343.5,114.2z"/>
				<path class="st26" d="M337.5,117.7c0.1,0.2,0.4,0.3,0.6,0.4c1.2,0.4,5.6-0.6,3.7-2.2c-0.6-0.5-1.6-0.9-2.4-0.8
					C338.6,115.3,336.9,116.6,337.5,117.7z"/>
				<g>
					<defs>
						<path id="SVGID_27_" d="M385.9,102.1c-2.5-1.6-5.1-3-8-4.1c-3.3-1.3-6.8-2.1-10.5-2.4c-0.1,0-0.2,0-0.3,0
							c-1.1-0.1-2.3-0.2-3.4-0.2h-0.1c-7.6,0-14.7,2.1-20.8,5.7c-11.8,7.1-19.7,20-19.7,34.8c0,17.3,10.8,32.1,26.1,37.9
							c4.5,1.7,9.3,2.6,14.4,2.6c3.1,0,6.1-0.3,9-1C390.7,151.8,394.1,124.5,385.9,102.1z"/>
					</defs>
					<clipPath id="SVGID_28_">
						<use xlink:href="#SVGID_27_"  style="overflow:visible;"/>
					</clipPath>
					<g class="st28">
						<defs>
							<path id="SVGID_29_" d="M492.9,65.1c-1.6,2.1-3.5,4.3-5.5,6.3c-3,3-5.8,6.1-8.6,9.4c-9.3,11.2-16.9,23.7-23.2,36.8
								c-4.9,10.2-7.8,21.1-12.7,31.2c-0.4,0.8-0.8,1.6-1.2,2.4c-4.5,8.7-10.4,16.6-17.3,23.5c-8.4,8.4-18.5,15.1-29.5,19.9
								c-23.5,10.3-51,12-74.9,3.5c-0.2-0.1-0.3-0.1-0.5-0.2c-25-9-35.8-26.4-40.2-42.5c-5.1-18.7-1.6-35.7-1.6-35.7
								s13.3-46.9,31.8-66.4C327.8,34,393.8,22.1,419.1,3.9c5.3-3.8,9,13.5,12.6,17.4c4.8,5.4,31,13.9,41-14.2
								c0.7-2.1,9.7-11.5,11.6-10.3c0,0,0,0,0,0c0.4,0.3,0.9,0.6,1.3,0.9c0.1,0.1,0.2,0.1,0.3,0.2c4.5,3.1,8.3,7,11.2,11.5
								c1.8,2.7,3.3,5.7,4.4,8.8C506.6,32.4,504.5,49.9,492.9,65.1z"/>
						</defs>
						<clipPath id="SVGID_30_">
							<use xlink:href="#SVGID_29_"  style="overflow:visible;"/>
						</clipPath>
						<radialGradient id="SVGID_31_" cx="298.4351" cy="18.2432" r="136.4563" gradientUnits="userSpaceOnUse">
							<stop  offset="0" style="stop-color:#4B596D;stop-opacity:0"/>
							<stop  offset="1" style="stop-color:#B9CEEB"/>
						</radialGradient>
						<path class="st29" d="M528.6,44.2c5.5-12-11.7-72.7-15-84.3c-3.3-11.6-260.7,60.3-263.6,75.4c-2.9,15.1,38.4,171.2,38.4,177
							c0,5.8,142.7-21.2,150.8-21.2c8.1,0,38.3-70.7,45.8-70.7C492.4,120.5,526.9,47.8,528.6,44.2z"/>
					</g>
				</g>
			</g>
			<g>
				<polygon class="st30" points="346.1,104.3 364.4,110.1 364,87.1 354.1,70.2 344.6,84.6 				"/>
				<polygon class="st4" points="354.1,70.2 371.6,68.3 381.5,81.7 364,87.1 				"/>
				<polygon class="st31" points="364,87.1 364.4,110.1 381.5,102.5 381.5,81.7 				"/>
				<g>
					<polygon class="st7" points="350.1,85.7 350.5,90.9 356.6,92.1 356.6,86.2 					"/>
					<path class="st30" d="M359,89c-1.8-0.2-3.5-0.6-5.3-0.8c0-1.1,0-2.3-0.1-3.4c0-0.5-0.8-0.5-0.8,0c0.1,1.1,0.1,2.2,0.1,3.3
						c-1.4-0.2-2.9-0.4-4.4-0.4c-0.5,0-0.5,0.7,0,0.8c1.5,0,2.9,0.2,4.4,0.4c0,1.7-0.2,3.4-0.4,5.1c-0.1,0.5,0.7,0.7,0.7,0.2
						c0.3-1.7,0.4-3.5,0.4-5.2c1.8,0.3,3.5,0.6,5.3,0.8C359.5,89.9,359.5,89.1,359,89z"/>
				</g>
			</g>
		</g>
		<g>
			<g>
				<path class="st6" d="M292.6,309.8c-7.1,13.5-16.2,26-27,36.7c-13.1,13.1-28.9,23.6-46,31.1c-0.6-3.2-0.9-6.4-0.9-9.5
					c-0.6-35,31-62.4,59-61.1c2.6,0.1,5.1,0.4,7.6,0.9C287.8,308.4,290.2,309,292.6,309.8z"/>
				<path class="st32" d="M290.5,309.1c-0.1-0.1-0.2-0.1-0.3-0.1c-0.5-0.1-1-0.3-1.6-0.4c-1.1-0.3-2.2-0.5-3.4-0.7c0,0,0,0,0,0.1
					c-2.5-0.4-4.7-0.7-4.7-0.7l-1.1,8.3c-0.1,0.2-0.2,0.3-0.3,0.5l-14.5,7.9l10.2-1.7c-7.6,10.9-16.1,21.3-26.3,29.7
					c-7.5,6.2-15.9,11.4-24.9,14.9c-1.2,0.5-3,0.8-4.9,1.2c0.1,3.1,0.3,6.3,0.9,9.5c17.2-7.5,32.9-17.9,46-31.1
					c10.8-10.8,20-23.2,27-36.7C291.9,309.6,291.2,309.3,290.5,309.1z"/>
				<g>
					<defs>
						<path id="SVGID_32_" d="M292.6,309.9c-7.1,13.5-16.2,26-27,36.7c-13.1,13.1-28.9,23.6-46,31.1c-0.6-3.2-0.9-6.4-0.9-9.5
							c-0.6-35,31-62.4,59-61.1c2.6,0.1,5.1,0.4,7.6,0.9C287.8,308.5,290.3,309.1,292.6,309.9z"/>
					</defs>
					<clipPath id="SVGID_33_">
						<use xlink:href="#SVGID_32_"  style="overflow:visible;"/>
					</clipPath>
					<g class="st33">
						<defs>
							<path id="SVGID_34_" d="M306.1,309.2c-1,1.3-2.1,2.5-3.3,3.7c-1.8,1.8-3.5,3.6-5.1,5.6c-5.5,6.6-10,14.1-13.8,21.9
								c-2.9,6-4.6,12.5-7.6,18.5c-0.2,0.5-0.5,1-0.7,1.4c-2.7,5.1-6.2,9.9-10.3,14c-5,5-11,9-17.5,11.8
								c-13.9,6.1-30.3,7.1-44.5,2.1c-0.1,0-0.2-0.1-0.3-0.1c-14.8-5.3-21.3-15.7-23.9-25.2c-3-11.1-0.9-21.2-0.9-21.2
								s7.9-27.9,18.9-39.4c11-11.6,50.1-18.6,65.2-29.4c3.2-2.3,5.4,8,7.5,10.4c2.8,3.2,18.4,8.3,24.3-8.5c0.4-1.2,5.7-6.9,6.9-6.1
								c0,0,0,0,0,0c0.3,0.2,0.5,0.3,0.8,0.5c0.1,0,0.1,0.1,0.2,0.1c2.7,1.9,4.9,4.2,6.6,6.8c1.1,1.6,1.9,3.4,2.6,5.2
								C314.3,289.8,313,300.2,306.1,309.2z"/>
						</defs>
						<clipPath id="SVGID_35_">
							<use xlink:href="#SVGID_34_"  style="overflow:visible;"/>
						</clipPath>
						<radialGradient id="SVGID_36_" cx="190.6257" cy="281.3359" r="81.0682" gradientUnits="userSpaceOnUse">
							<stop  offset="0" style="stop-color:#4B596D;stop-opacity:0"/>
							<stop  offset="1" style="stop-color:#B9CEEB"/>
						</radialGradient>
						<path class="st34" d="M327.3,296.8c3.3-7.1-7-43.2-8.9-50.1c-2-6.9-154.9,35.8-156.6,44.8c-1.7,9,22.8,101.7,22.8,105.2
							c0,3.4,84.8-12.6,89.6-12.6c4.8,0,22.8-42,27.2-42C305.9,342.1,326.4,298.9,327.3,296.8z"/>
					</g>
				</g>
			</g>
			<g>
				<polygon class="st30" points="239.2,324.8 266,324.8 265.5,308.6 251.6,293.6 238,309.1 				"/>
				<path class="st4" d="M251.6,293.6l19.9-5c0,0,9.7,11.7,10.9,13.6c-0.7,0.5-16.9,6.5-16.9,6.5L251.6,293.6z"/>
				<path class="st31" d="M265.5,308.6l0.5,16.2l17-8.7c0,0-0.2-14-0.6-13.9C281.9,302.2,265.5,308.6,265.5,308.6z"/>
				<polygon class="st7" points="257,314.5 246.2,314.5 245.6,308.4 257,308.6 				"/>
				<path class="st30" d="M258.1,311.4c-2.2,0.1-4.3,0.1-6.5,0c0-1.3-0.1-2.7-0.3-4c-0.1-0.5-0.8-0.3-0.7,0.2
					c0.2,1.2,0.3,2.5,0.3,3.8c-2.1-0.1-4.2-0.2-6.4-0.4c-0.5,0-0.5,0.7,0,0.8c2.2,0.2,4.3,0.3,6.4,0.4c0,1,0.1,2,0.2,3
					c0.1,0.5,0.8,0.5,0.8,0c-0.1-1-0.1-2-0.2-3c2.1,0.1,4.3,0.1,6.5,0C258.6,312.2,258.6,311.4,258.1,311.4z"/>
			</g>
		</g>
		<g>
			<g>
				<g>
					<path class="st26" d="M103.2,375.5c-0.2,2.5-0.7,5-1.3,7.3c-39-14-55.9-41.2-62.8-66.3c2.2-1,4.5-1.8,6.8-2.5
						c4-1.1,8.3-1.7,12.6-1.7C82,312.4,105.7,347.8,103.2,375.5z"/>
					<path class="st27" d="M103.2,375.5c-35.7-13.1-52.8-50.2-57.3-61.4c4-1.1,8.3-1.7,12.6-1.7C82,312.4,105.7,347.8,103.2,375.5z"
						/>
				</g>
				<g>
					<defs>
						<path id="SVGID_37_" d="M58.6,312.4c-4.4,0-8.6,0.6-12.6,1.7c-2.4,0.6-4.6,1.5-6.8,2.5c6.9,25.1,23.8,52.3,62.8,66.3
							c0.7-2.4,1.1-4.8,1.3-7.3C105.7,347.8,82,312.4,58.6,312.4z"/>
					</defs>
					<clipPath id="SVGID_38_">
						<use xlink:href="#SVGID_37_"  style="overflow:visible;"/>
					</clipPath>
					<g class="st35">
						<defs>
							<path id="SVGID_39_" d="M184.1,300.7c-1.4,1.8-2.9,3.6-4.6,5.3c-2.5,2.5-4.9,5.1-7.2,7.8c-7.8,9.3-14.1,19.8-19.4,30.8
								c-4.1,8.5-6.5,17.6-10.7,26.1c-0.3,0.7-0.7,1.4-1,2c-3.8,7.2-8.7,13.9-14.5,19.7c-7,7-15.5,12.6-24.7,16.6
								c-19.6,8.6-42.6,10-62.6,3c-0.1,0-0.3-0.1-0.4-0.2c-20.9-7.5-29.9-22-33.6-35.5c-4.3-15.6-1.3-29.8-1.3-29.8
								s11.1-39.2,26.5-55.5c15.5-16.3,70.6-26.2,91.7-41.4c4.5-3.2,7.6,11.3,10.5,14.6c4,4.5,25.9,11.6,34.2-11.9
								c0.6-1.7,8.1-9.7,9.7-8.6c0,0,0,0,0,0c0.4,0.2,0.7,0.5,1.1,0.7c0.1,0,0.2,0.1,0.2,0.2c3.8,2.6,6.9,5.9,9.4,9.6
								c1.5,2.3,2.7,4.7,3.7,7.3C195.6,273.4,193.8,288,184.1,300.7z"/>
						</defs>
						<clipPath id="SVGID_40_">
							<use xlink:href="#SVGID_39_"  style="overflow:visible;"/>
						</clipPath>
						<radialGradient id="SVGID_41_" cx="21.5611" cy="261.5444" r="114.0639" gradientUnits="userSpaceOnUse">
							<stop  offset="0" style="stop-color:#4B596D;stop-opacity:0"/>
							<stop  offset="1" style="stop-color:#B9CEEB"/>
						</radialGradient>
						<path class="st36" d="M213.9,283.3c4.6-10-9.8-60.8-12.6-70.4c-2.8-9.7-217.9,50.4-220.4,63c-2.4,12.6,32.1,143.1,32.1,148
							c0,4.8,119.3-17.8,126.1-17.8c6.7,0,32-59.1,38.3-59.1C183.7,347,212.6,286.2,213.9,283.3z"/>
					</g>
				</g>
			</g>
			<g>
				<polygon class="st30" points="52.4,321.6 50.6,299.5 60.4,284.9 70.5,295.9 71,318 				"/>
				<polygon class="st4" points="35.5,297.4 50.6,299.5 60.4,284.9 42.5,283.8 35.3,294.5 				"/>
				<path class="st31" d="M52.4,321.6l-12.8-3.4c-0.2-0.5-0.3-1.1-0.5-1.6c-1.8-6.6-2.9-13.1-3.6-19.2l15.1,2.1L52.4,321.6z"/>
				<g>
					<polygon class="st7" points="57.9,295.2 58.6,302.3 64.8,301.7 64.8,294.6 					"/>
					<path class="st30" d="M66.5,297c-1.4,0.2-2.7,0.3-4.1,0.5c-0.1-1.4-0.1-2.7-0.2-4.1c0-0.5-0.8-0.5-0.8,0
						c0.1,1.4,0.1,2.8,0.2,4.2c-1.4,0.1-2.8,0.2-4.1,0.5c-0.5,0.1-0.3,0.8,0.2,0.7c1.3-0.3,2.6-0.4,4-0.5c0.1,1.5,0.2,3,0.2,4.5
						c0,0.5,0.8,0.5,0.8,0c-0.1-1.5-0.2-3.1-0.2-4.6c1.4-0.1,2.9-0.2,4.3-0.5C67.2,297.6,67,296.9,66.5,297z"/>
				</g>
			</g>
		</g>
	</g>
	<circle class="st7" cx="367.8" cy="214.3" r="1.1"/>
	<path class="st7" d="M495.4,147.1c0,0.6-0.5,1.1-1.1,1.1c-0.6,0-1.1-0.5-1.1-1.1s0.5-1.1,1.1-1.1
		C494.9,146,495.4,146.5,495.4,147.1z"/>
	<path class="st7" d="M483.1,123.4c0,0.6-0.5,1.1-1.1,1.1c-0.6,0-1.1-0.5-1.1-1.1s0.5-1.1,1.1-1.1
		C482.6,122.2,483.1,122.7,483.1,123.4z"/>
	<circle class="st7" cx="367.8" cy="280.7" r="1.1"/>
	<g>
		<g>
			<path class="st0" d="M432.9,174.2c-11.6,9.2-23.2,18.3-35.2,26.9c-17.6,12.6-38.6,22-53,38.7c-18,20.7-18.1,50.2-8.1,74.8
				c12.2,30,41.6,52.7,73.4,58.1c32.7,5.6,68.9-3.3,93.6-26c3.2-2.9,6.1-6,8.8-9.4c25.9-31.9,24-72.1,16.3-110.2
				c-2.8-13.7-6.1-27.6-6-41.6c0.1-14.5,7.6-26.7,8.6-40.8c1.7-22-16.3-30.9-35.7-27.7C465.3,122.1,450.4,160.3,432.9,174.2z"/>
			<g>
				<defs>
					<path id="SVGID_42_" d="M432.9,175c-11.6,9.2-23.2,18.3-35.2,26.9c-17.6,12.6-38.6,22-53,38.7c-18,20.7-18.1,50.2-8.1,74.8
						c12.2,30,41.6,52.7,73.4,58.1c32.7,5.6,68.9-3.3,93.6-26c3.2-2.9,6.1-6,8.8-9.4c25.9-31.9,24-72.1,16.3-110.2
						c-2.8-13.7-6.1-27.6-6-41.6c0.1-14.5,7.6-26.7,8.6-40.8c1.7-22-16.3-30.9-35.7-27.7C465.3,122.9,450.4,161.1,432.9,175z"/>
				</defs>
				<clipPath id="SVGID_43_">
					<use xlink:href="#SVGID_42_"  style="overflow:visible;"/>
				</clipPath>
				<radialGradient id="SVGID_44_" cx="352.5143" cy="117.1065" r="242.9639" gradientUnits="userSpaceOnUse">
					<stop  offset="0" style="stop-color:#4B596D;stop-opacity:0"/>
					<stop  offset="1" style="stop-color:#B9CEEB"/>
				</radialGradient>
				<path class="st37" d="M762.3,163.4c9.8-21.3-20.9-129.4-26.8-150c-5.9-20.6-464.2,107.4-469.4,134.3s68.5,304.9,68.5,315.2
					c0,10.3,254.1-37.8,268.5-37.8c14.4,0,68.2-125.8,81.5-125.8C697.8,299.2,759.4,169.7,762.3,163.4z"/>
			</g>
		</g>
		<g>
			<g>
				<g>
					<path class="st11" d="M518.8,285.9c-4.6,45.6-45.4,78.8-91,74.2c-20.4-2.1-38.3-11.3-51.5-25.1c-16.3-17-25.3-40.7-22.7-65.9
						c4.6-45.6,45.4-78.8,91-74.2c3.3,0.3,6.5,0.8,9.6,1.5C494.7,205.4,523.1,243.5,518.8,285.9z"/>
					<path class="st6" d="M488.4,270.3c-4.5,43.8-43.6,75.7-87.4,71.3c-8.8-0.9-17-3.2-24.7-6.6c-16.3-17-25.3-40.7-22.7-65.9
						c4.6-45.6,45.4-78.8,91-74.2c3.3,0.3,6.5,0.8,9.6,1.5C477.4,212.4,491.5,240.3,488.4,270.3z"/>
					<polygon class="st11" points="443.3,258.8 496.8,253.1 485.5,231.3 					"/>
					<path class="st38" d="M366.1,243.2c0.1,0.2,0.1,0.4,0.3,0.6c0.6,1,1.9,1.4,3,1.2c2.4-0.3,4.8-2.5,5.7-4.6
						c0.6-1.5,0.5-3.5-0.8-4.6c-0.8-0.7-2-0.8-3.1-0.5C368.8,236,365.2,240.3,366.1,243.2z"/>
					<path class="st38" d="M378.7,243.8c0-0.1-0.1-0.2-0.2-0.3c-0.4-0.5-1.1-0.6-1.7-0.5c-1.3,0.3-2.5,1.6-2.9,2.9
						c-0.3,0.8-0.1,1.9,0.7,2.5c0.5,0.3,1.2,0.3,1.7,0.1C377.7,247.9,379.4,245.3,378.7,243.8z"/>
					<path class="st11" d="M465,315.4c-0.1-0.2-0.2-0.4-0.3-0.5c-0.6-0.9-1.9-1.1-2.9-0.8c-2.2,0.5-4.2,2.8-4.9,4.9
						c-0.4,1.4-0.1,3.3,1.2,4.2c0.8,0.6,2,0.6,2.9,0.2C463.2,322.4,466.1,318,465,315.4z"/>
					<path class="st11" d="M469.8,307.8c0-0.1-0.1-0.2-0.2-0.3c-0.4-0.5-1.2-0.7-1.8-0.5c-1.4,0.3-2.6,1.7-3,3
						c-0.3,0.9-0.1,2,0.7,2.6c0.5,0.4,1.2,0.4,1.8,0.1C468.7,312.2,470.5,309.5,469.8,307.8z"/>
					<path class="st11" d="M453.7,320.6c0-0.1-0.1-0.2-0.2-0.3c-0.4-0.5-1.2-0.7-1.8-0.5c-1.4,0.3-2.6,1.7-3,3
						c-0.3,0.9-0.1,2,0.7,2.6c0.5,0.4,1.2,0.4,1.8,0.1C452.6,324.9,454.4,322.2,453.7,320.6z"/>
					<path class="st38" d="M371.6,247.9c0-0.1-0.1-0.2-0.2-0.3c-0.4-0.5-1.1-0.6-1.7-0.5c-1.3,0.3-2.5,1.6-2.9,2.9
						c-0.3,0.8-0.1,1.9,0.7,2.5c0.5,0.3,1.2,0.3,1.7,0.1C370.6,252,372.3,249.4,371.6,247.9z"/>
				</g>
				<g>
					<defs>
						
							<ellipse id="SVGID_45_" transform="matrix(0.2505 -0.9681 0.9681 0.2505 58.961 629.7096)" cx="436.2" cy="276.8" rx="83.1" ry="83.1"/>
					</defs>
					<clipPath id="SVGID_46_">
						<use xlink:href="#SVGID_45_"  style="overflow:visible;"/>
					</clipPath>
					<g class="st39">
						<defs>
							<path id="SVGID_47_" d="M675,170.1c-3.3,3.5-7,7-11,10.2c-5.9,4.8-11.6,9.9-17,15.2c-18.7,18.3-34.4,39.3-48.1,61.5
								c-10.6,17.3-17.7,36.2-28.4,53.4c-0.9,1.4-1.7,2.7-2.6,4.1c-9.7,14.6-21.6,27.8-35.2,38.9c-16.5,13.5-35.8,23.6-56.3,30.2
								c-43.8,14.1-93.3,12.1-134.4-7.3c-0.3-0.1-0.6-0.3-0.9-0.4c-43-20.6-59.2-53.6-64.1-83.2c-5.8-34.4,3.6-64.1,3.6-64.1
								s32.2-81.4,68.8-112.8c36.6-31.4,156.5-40.6,205-68.5c10.2-5.9,13.7,25.7,19.3,33.4c7.6,10.4,52.8,30.5,75.8-18
								C651,59.3,668.7,44,672,46.6c0,0,0,0,0,0c0.7,0.6,1.4,1.2,2.1,1.8c0.2,0.1,0.3,0.3,0.5,0.4c7.5,6.4,13.5,14.1,17.9,22.5
								c2.7,5.2,4.8,10.7,6.3,16.5C705.5,114.3,698.4,145.2,675,170.1z"/>
						</defs>
						<clipPath id="SVGID_48_">
							<use xlink:href="#SVGID_47_"  style="overflow:visible;"/>
						</clipPath>
						
							<radialGradient id="SVGID_49_" cx="325.0329" cy="134.836" r="244.9986" gradientTransform="matrix(0.9949 0.1012 -0.1012 0.9949 26.4556 -115.8655)" gradientUnits="userSpaceOnUse">
							<stop  offset="0" style="stop-color:#4B596D;stop-opacity:0"/>
							<stop  offset="1" style="stop-color:#B9CEEB"/>
						</radialGradient>
						<path class="st40" d="M742.5,139.4c12-20.4-7.7-132-11.5-153.3C727.2-35.1,254.3,46.5,246.4,73
							c-7.9,26.5,37.6,312.8,36.5,323.2c-1.1,10.4,258.8-12,273.2-10.5c14.4,1.5,81.3-119.3,94.6-117.9
							C664.1,269.1,739,145.5,742.5,139.4z"/>
					</g>
				</g>
			</g>
			<g>
				<polygon class="st31" points="443.3,258.8 485.5,231.3 504.3,178.5 465.4,197.7 				"/>
				<g>
					<polygon class="st30" points="465.4,197.7 462.2,206.4 443.3,258.8 393.6,252.1 378,203.6 375.3,195.5 411.7,143.3 					"/>
					<path class="st8" d="M465.4,197.7l-3.1,8.6l-49.2-52c0,0-29.3,40.8-35.1,49.2l-2.6-8.2l36.4-52.2L465.4,197.7z"/>
				</g>
				<g>
					<polygon class="st7" points="405.3,186.8 404.8,206.4 428.7,208.8 429.4,189.2 					"/>
					<path class="st30" d="M431.3,199c-4.6-0.3-9.3-0.7-13.9-1.2c0.1-3.7,0.1-7.4,0.2-11.1c0-0.7-1.1-0.8-1.1-0.1
						c-0.1,3.7-0.1,7.4-0.2,11.1c-5-0.5-10.1-1.2-15.1-1.9c-0.7-0.1-0.8,1-0.1,1.1c5.1,0.8,10.1,1.4,15.2,1.9
						c-0.1,3.9-0.1,7.7-0.2,11.6c0,0.7,1.1,0.8,1.1,0.1c0.1-3.9,0.1-7.7,0.2-11.6c4.6,0.5,9.2,0.9,13.8,1.2
						C431.9,200.1,432.1,199,431.3,199z"/>
				</g>
				<g>
					<path class="st4" d="M523.3,182.9l-41,25.7l-2.9,1.8c-1.7,1.6-4.5,2.1-6.5-0.1c-20-21.6-40-43.1-60-64.6
						c-15,21.6-30.1,43.2-45.1,64.8c-3.2,4.6-10.3-0.5-7.1-5.2c16.1-23.1,32.1-46.1,48.2-69.2c0.5-0.7,1.1-1.2,1.9-1.4l0,0l2.5-0.9
						l58.5-21.7L523.3,182.9z"/>
					<path class="st31" d="M482.2,208.6l-2.9,1.8c-1.7,1.6-4.5,2.1-6.5-0.1c-20-21.6-40-43.1-60-64.6c-15,21.6-30.1,43.2-45.1,64.8
						c-3.2,4.6-10.3-0.5-7.1-5.2c16.1-23.1,32.1-46.1,48.2-69.2c0.5-0.7,1.1-1.2,1.9-1.4l0,0l2.5-0.9L482.2,208.6z"/>
				</g>
			</g>
		</g>
	</g>
	<g>
		<path class="st26" d="M222.4,93c-1,0-2-0.1-3.1-0.2l0.1-1c1,0.1,2,0.2,3,0.2L222.4,93z"/>
		<path class="st26" d="M205.6,316.1c-0.6,0-1.3,0-1.9,0l0-1c0.7,0,1.4,0,2.1,0c1.3,0,2.6,0,4,0l0,1
			C208.4,316.1,207,316.1,205.6,316.1z M197.6,315.9c-2-0.1-4.1-0.2-6.1-0.4l0.1-1c2,0.2,4.1,0.3,6.1,0.4L197.6,315.9z M215.9,315.8
			l-0.1-1c2-0.1,4.1-0.3,6.1-0.5l0.1,1C220,315.5,217.9,315.6,215.9,315.8z M185.4,314.9c-2-0.2-4.1-0.5-6.1-0.8l0.1-1
			c2,0.3,4,0.5,6,0.8L185.4,314.9z M228,314.5l-0.1-1l1.1-0.2c1.6-0.2,3.3-0.5,4.9-0.8l0.2,1c-1.6,0.3-3.3,0.6-4.9,0.8L228,314.5z
			 M173.3,313.2c-1.7-0.3-3.5-0.6-5.2-0.9l-0.8-0.2l0.2-1l0.8,0.2c1.7,0.3,3.4,0.6,5.2,0.9L173.3,313.2z M240.1,312.3l-0.2-1
			c1.9-0.4,3.9-0.9,5.9-1.5l0.3,1C244,311.3,242,311.8,240.1,312.3z M161.3,310.8c-2-0.4-4-0.9-5.9-1.4l0.3-1c2,0.5,4,1,5.9,1.4
			L161.3,310.8z M251.9,309.1l-0.3-1c1.9-0.6,3.8-1.2,5.8-1.9l0.3,1C255.7,307.8,253.8,308.5,251.9,309.1z M149.5,307.8
			c-1.9-0.6-3.9-1.2-5.8-1.8l0.3-1c1.9,0.6,3.9,1.2,5.8,1.8L149.5,307.8z M263.4,305l-0.4-0.9c1.9-0.7,3.8-1.5,5.6-2.3l0.4,0.9
			C267.2,303.5,265.3,304.3,263.4,305z M137.9,304.1c-1.9-0.7-3.8-1.4-5.7-2.1l0.4-0.9c1.9,0.7,3.8,1.4,5.7,2.1L137.9,304.1z
			 M274.6,300.3l-0.4-0.9c1.8-0.8,3.7-1.7,5.5-2.6l0.4,0.9C278.3,298.5,276.5,299.4,274.6,300.3z M126.5,299.7
			c-1.9-0.8-3.7-1.6-5.6-2.4l0.4-0.9c1.8,0.8,3.7,1.7,5.6,2.4L126.5,299.7z M285.6,294.9l-0.5-0.9c1.8-0.9,3.6-1.9,5.4-2.9l0.5,0.9
			C289.2,293,287.4,294,285.6,294.9z M115.3,294.6c-1.8-0.9-3.6-1.8-5.4-2.8l0.5-0.9c1.8,0.9,3.6,1.9,5.4,2.8L115.3,294.6z
			 M296.3,289l-0.5-0.9c1.8-1,3.5-2,5.2-3.1l0.5,0.9C299.8,287,298,288,296.3,289z M104.6,288.9c-1.8-1-3.5-2.1-5.2-3.1l0.5-0.9
			c1.7,1.1,3.4,2.1,5.2,3.1L104.6,288.9z M306.8,282.8l-0.5-0.9c1.7-1.1,3.4-2.1,5.2-3.2l0.5,0.9
			C310.2,280.7,308.5,281.7,306.8,282.8z M94.2,282.5c-1.7-1.1-3.4-2.3-5-3.5l0.6-0.8c1.6,1.2,3.3,2.3,5,3.5L94.2,282.5z M317,276.3
			l-0.6-0.8c1.7-1.1,3.4-2.2,5.1-3.4l0.6,0.8C320.4,274,318.7,275.1,317,276.3z M84.3,275.3c-1.6-1.2-3.2-2.5-4.8-3.8l0.7-0.8
			c1.5,1.3,3.1,2.6,4.7,3.8L84.3,275.3z M327.2,269.5l-0.6-0.8c1.7-1.1,3.4-2.3,5-3.4l0.6,0.8C330.5,267.2,328.9,268.3,327.2,269.5z
			 M74.9,267.5c-1.5-1.4-3-2.8-4.4-4.2l0.7-0.7c1.4,1.4,2.9,2.8,4.4,4.2L74.9,267.5z M337.2,262.6l-0.6-0.8c1.7-1.2,3.3-2.3,5-3.5
			l0.6,0.8C340.6,260.3,338.9,261.4,337.2,262.6z M66.2,258.9c-1.4-1.5-2.8-3-4.1-4.5l0.8-0.7c1.3,1.5,2.7,3,4.1,4.5L66.2,258.9z
			 M347.2,255.6l-0.6-0.8c1.7-1.2,3.3-2.3,5-3.5l0.6,0.8C350.6,253.3,348.9,254.5,347.2,255.6z M58.2,249.7
			c-1.3-1.6-2.5-3.2-3.7-4.9l0.8-0.6c1.2,1.6,2.4,3.3,3.7,4.8L58.2,249.7z M357.2,248.7l-0.6-0.8c1.5-1,3-2.1,4.6-3.1l0.5-0.3
			l0.6,0.8l-0.5,0.3C360.3,246.6,358.8,247.6,357.2,248.7z M367.3,241.9l-0.5-0.9c1.8-1.2,3.6-2.2,5.2-3.2l0.5,0.9
			C370.9,239.6,369.2,240.7,367.3,241.9z M51,239.8c-0.3-0.5-0.7-1-1-1.5c-0.8-1.2-1.5-2.4-2.3-3.6l0.9-0.5c0.7,1.2,1.5,2.4,2.2,3.6
			c0.3,0.5,0.7,1,1,1.5L51,239.8z M377.9,235.8l-0.4-0.9c1.9-0.9,3.8-1.8,5.6-2.5l0.4,0.9C381.6,234.1,379.7,234.9,377.9,235.8z
			 M389.1,231.6l-0.2-1c2.1-0.5,4.1-0.9,6.1-1.1l0.1,1C393.1,230.7,391.1,231.1,389.1,231.6z M44.8,229.3c-0.9-1.8-1.9-3.6-2.7-5.5
			l0.9-0.4c0.9,1.8,1.8,3.7,2.7,5.4L44.8,229.3z M39.6,218.2c-0.8-1.9-1.5-3.8-2.2-5.7l1-0.3c0.7,1.9,1.4,3.8,2.2,5.7L39.6,218.2z
			 M35.4,206.7c-0.6-2-1.2-3.9-1.6-5.9l1-0.3c0.5,1.9,1,3.9,1.6,5.8L35.4,206.7z M32.4,194.8c-0.4-2-0.8-4-1.1-6l1-0.2
			c0.3,2,0.7,4,1.1,6L32.4,194.8z M30.5,182.8c-0.2-2-0.4-4.1-0.5-6.1l1-0.1c0.1,2,0.3,4,0.5,6L30.5,182.8z M29.8,170.6
			c0-0.5,0-1,0-1.5c0-1.5,0-3.1,0.1-4.6l1,0c-0.1,1.5-0.1,3-0.1,4.5c0,0.5,0,1,0,1.5L29.8,170.6z M31.3,158.4l-1-0.1
			c0.2-2,0.4-4.1,0.7-6.1l1,0.1C31.7,154.4,31.4,156.4,31.3,158.4z M32.9,146.4l-1-0.2c0.4-2,0.8-4,1.3-6l1,0.2
			C33.8,142.4,33.3,144.4,32.9,146.4z M35.9,134.7l-1-0.3c0.6-1.9,1.3-3.9,2-5.8l0.9,0.4C37.2,130.8,36.5,132.8,35.9,134.7z
			 M40.2,123.4l-0.9-0.4c0.8-1.9,1.7-3.7,2.7-5.5l0.9,0.5C42,119.7,41.1,121.5,40.2,123.4z M45.9,112.6l-0.9-0.5
			c1.1-1.7,2.2-3.5,3.4-5.1l0.8,0.6C48.1,109.2,46.9,110.9,45.9,112.6z M52.9,102.7l-0.8-0.6c1.3-1.6,2.6-3.1,4-4.6l0.7,0.7
			C55.4,99.6,54.1,101.2,52.9,102.7z M61.1,93.8l-0.7-0.7c1.5-1.4,3-2.8,4.6-4.1l0.6,0.8C64,91.1,62.5,92.4,61.1,93.8z M213.3,91.9
			c-1.9-0.4-3.9-0.9-5.9-1.5l0.3-1c2,0.6,4,1.1,5.9,1.5L213.3,91.9z M201.5,88.4c-1.8-0.7-3.7-1.4-5.7-2.3l0.4-0.9
			c2,0.9,3.8,1.6,5.6,2.3L201.5,88.4z M70.3,86.1l-0.6-0.8c1.6-1.2,3.3-2.4,5-3.5l0.5,0.9C73.6,83.7,72,84.9,70.3,86.1z M190.3,83.6
			c-1.8-0.9-3.7-1.7-5.5-2.6l0.4-0.9c1.8,0.9,3.7,1.8,5.5,2.6L190.3,83.6z M80.5,79.5L80,78.6c1.8-1,3.6-2,5.4-2.8l0.4,0.9
			C84.1,77.6,82.3,78.5,80.5,79.5z M179.3,78.4c-1.8-0.9-3.7-1.7-5.5-2.6l0.4-0.9c1.8,0.8,3.7,1.7,5.5,2.6L179.3,78.4z M91.4,74.2
			L91,73.2c1.9-0.8,3.8-1.5,5.7-2.2l0.3,1C95.2,72.7,93.3,73.4,91.4,74.2z M168.2,73.4c-1.7-0.7-3.3-1.3-4.8-1.9l-0.8-0.3l0.3-1
			l0.9,0.3c1.6,0.6,3.2,1.2,4.9,1.9L168.2,73.4z M102.9,70.2l-0.3-1c2-0.6,3.9-1.1,5.9-1.5l0.2,1C106.8,69.1,104.8,69.6,102.9,70.2z
			 M156.7,69.4c-1.9-0.5-3.9-1-5.9-1.4l0.2-1c2,0.4,4,0.9,6,1.4L156.7,69.4z M114.7,67.5l-0.2-1c2-0.3,4-0.6,6.1-0.8l0.1,1
			C118.7,66.9,116.7,67.2,114.7,67.5z M144.9,67c-2-0.3-4-0.5-6-0.6l0.1-1c2,0.2,4.1,0.4,6.1,0.6L144.9,67z M126.7,66.2l0-1
			c2-0.1,4.1-0.1,6.1-0.1l0,1C130.8,66.1,128.7,66.1,126.7,66.2z"/>
		<path class="st26" d="M404.1,230.9c-1-0.2-2-0.3-3-0.4l0.1-1c1,0.1,2.1,0.2,3.1,0.4L404.1,230.9z"/>
	</g>
	<path class="st31" d="M510.8,300.8c-2,0-4.1-0.2-6.1-0.4l0.1-1c2,0.2,4,0.3,6,0.4L510.8,300.8z M516.9,300.7l-0.1-1
		c1.3-0.1,2.7-0.2,4-0.4c0.7-0.1,1.3-0.2,2-0.3l0.2,1c-0.7,0.1-1.4,0.2-2.1,0.3C519.6,300.5,518.3,300.6,516.9,300.7z M498.7,299.5
		c-2-0.4-4-0.8-6-1.3l0.3-1c2,0.5,3.9,1,5.9,1.3L498.7,299.5z M529,298.8l-0.2-1c1.9-0.5,3.9-1.1,5.8-1.7l0.3,1
		C533,297.7,531,298.3,529,298.8z M486.8,296.4c-1.9-0.7-3.8-1.4-5.7-2.2l0.4-0.9c1.9,0.8,3.8,1.5,5.7,2.1L486.8,296.4z
		 M540.6,294.8l-0.4-0.9c1.8-0.8,3.6-1.7,5.4-2.7l0.5,0.9C544.3,293,542.4,294,540.6,294.8z M475.6,291.6c-1.8-0.9-3.6-1.9-5.4-2.9
		l0.5-0.9c1.7,1,3.5,2,5.3,2.9L475.6,291.6z M551.2,288.8l-0.6-0.8c1.6-1.1,3.3-2.4,4.8-3.7l0.7,0.8
		C554.5,286.3,552.9,287.6,551.2,288.8z M465,285.5c-1.7-1.1-3.3-2.3-5-3.6l0.6-0.8c1.6,1.2,3.2,2.4,4.9,3.5L465,285.5z
		 M560.5,280.8l-0.7-0.7c1.4-1.5,2.7-3,4-4.5l0.8,0.6C563.3,277.8,562,279.3,560.5,280.8z M568.1,271.2l-0.9-0.5
		c1.1-1.7,2-3.5,2.9-5.3l0.9,0.4C570.2,267.6,569.2,269.4,568.1,271.2z M573.3,260.1l-1-0.3c0.6-1.9,1.2-3.8,1.6-5.8l1,0.2
		C574.5,256.2,574,258.2,573.3,260.1z M576,248.1l-1-0.1c0.2-2,0.4-4,0.4-6l1,0C576.4,244.1,576.2,246.2,576,248.1z M575.3,236
		c-0.1-2-0.3-4-0.6-6l1-0.1c0.3,2,0.5,4.1,0.6,6.1L575.3,236z M573.5,224c-0.4-1.9-0.9-3.9-1.5-5.9l1-0.3c0.6,2,1.1,4,1.5,5.9
		L573.5,224z M570.3,212.4c-0.6-1.9-1.4-3.8-2.1-5.7l0.9-0.4c0.8,1.9,1.5,3.8,2.1,5.7L570.3,212.4z M565.8,201.1
		c-0.8-1.8-1.7-3.6-2.6-5.5l0.9-0.5c0.9,1.8,1.8,3.7,2.6,5.5L565.8,201.1z M560.4,190.3c-0.7-1.4-1.5-2.7-2.3-4l-0.7-1.2l0.9-0.5
		l0.7,1.2c0.8,1.3,1.5,2.7,2.3,4.1L560.4,190.3z M554.3,179.8c-1.2-2.1-2.1-3.8-2.9-5.4l0.9-0.4c0.8,1.6,1.7,3.3,2.9,5.3
		L554.3,179.8z M549,168.7c-0.4-1.1-0.7-2.2-1-3.3c-0.2-0.9-0.4-1.8-0.6-2.7l1-0.2c0.2,0.9,0.4,1.7,0.6,2.6c0.3,1,0.6,2.1,1,3.2
		L549,168.7z M546.7,156.7c0-0.8-0.1-1.5-0.1-2.3c0-1.2,0-2.5,0.1-3.9l1,0.1c-0.1,1.3-0.1,2.6-0.1,3.8c0,0.7,0,1.5,0,2.2
		L546.7,156.7z M548.4,144.6l-1-0.1c0.3-1.8,0.6-3.8,1-6l1,0.2C549,140.8,548.7,142.8,548.4,144.6z M550.7,132.7l-1-0.2l0.3-1.5
		c0.3-1.5,0.6-3,1-4.5l1,0.2c-0.3,1.5-0.6,3-1,4.5L550.7,132.7z M553.1,120.8l-1-0.2c0.4-2.2,0.7-4.1,0.9-6l1,0.1
		C553.8,116.6,553.5,118.6,553.1,120.8z M554.4,108.6l-1,0c0-0.3,0-0.7,0-1c0-1.7-0.1-3.4-0.3-5l1-0.1c0.2,1.6,0.3,3.4,0.3,5.1
		C554.5,107.9,554.5,108.3,554.4,108.6z M552.1,96.7c-0.5-1.9-1.2-3.8-2-5.6l0.9-0.4c0.8,1.9,1.5,3.8,2,5.8L552.1,96.7z M442.9,86.6
		l-0.6-0.9c1.6-1,3-2.4,4.2-4.1l0.8,0.6C446.2,84,444.7,85.5,442.9,86.6z M547.3,85.8c-1.1-1.6-2.3-3.3-3.6-4.8l0.8-0.7
		c1.4,1.6,2.6,3.2,3.7,4.9L547.3,85.8z M439.6,83.1c0-0.3,0-0.6,0-0.9c0-1.7,0.3-3.5,0.9-5.3l1,0.3c-0.6,1.7-0.9,3.3-0.9,5
		c0,0.3,0,0.5,0,0.8L439.6,83.1z M227.8,82.2l-0.8-0.6c1.2-1.6,2.4-3.2,3.6-4.9l0.8,0.6C230.2,78.9,229,80.5,227.8,82.2z
		 M539.5,76.7c-1.5-1.3-3-2.6-4.7-3.8l0.6-0.8c1.7,1.2,3.3,2.5,4.8,3.9L539.5,76.7z M450.1,76.6l-1-0.3c0.6-1.9,0.9-3.9,0.9-5.8l1,0
		C451.1,72.6,450.7,74.6,450.1,76.6z M235.1,72.4l-0.8-0.6c1.2-1.6,2.5-3.2,3.7-4.8l0.8,0.6C237.6,69.2,236.3,70.8,235.1,72.4z
		 M444.2,72.1l-0.8-0.6c0.7-0.9,1.4-1.7,2.3-2.5c0.7-0.6,1.4-1.2,2.2-1.8l0.6,0.8c-0.7,0.5-1.4,1.1-2.1,1.7
		C445.6,70.4,444.9,71.2,444.2,72.1z M529.7,69.6c-1.7-1-3.5-1.9-5.3-2.8l0.4-0.9c1.9,0.9,3.7,1.8,5.4,2.8L529.7,69.6z M453.6,65
		l-0.4-0.9c1.7-0.8,3.6-1.5,5.8-2.1l0.3,1C457.2,63.5,455.3,64.2,453.6,65z M449.4,64.6c-0.4-1.8-1-3.8-1.9-5.7l0.9-0.4
		c0.8,2,1.5,4,1.9,5.9L449.4,64.6z M518.8,64.5c-1.9-0.7-3.8-1.3-5.7-1.9l0.3-1c2,0.6,3.9,1.2,5.8,1.9L518.8,64.5z M242.6,62.9
		l-0.8-0.6c1.3-1.6,2.6-3.2,3.9-4.7l0.8,0.6C245.1,59.7,243.8,61.3,242.6,62.9z M465.1,61.4l-0.2-1c2-0.4,4-0.8,6-1.1l0.2,1
		C469.1,60.6,467.1,61,465.1,61.4z M507.2,61.1c-1-0.2-2.1-0.4-3.1-0.6c-0.9-0.2-1.9-0.3-2.8-0.4l0.1-1c1,0.1,1.9,0.3,2.9,0.4
		c1.1,0.2,2.1,0.4,3.2,0.6L507.2,61.1z M477.1,59.6l-0.1-1c2-0.2,4.1-0.3,6.1-0.4l0,1C481.1,59.3,479.1,59.4,477.1,59.6z
		 M495.2,59.5c-2-0.2-4-0.3-6-0.3l0-1c2,0,4.1,0.1,6.1,0.3L495.2,59.5z M250.3,53.5l-0.8-0.7c1.4-1.6,2.7-3.1,4.1-4.5l0.7,0.7
		C253.1,50.4,251.7,52,250.3,53.5z M444.9,53.5c-0.6-1-1.2-2-1.9-3.1c-0.4-0.7-0.9-1.3-1.4-2l0.8-0.6c0.5,0.7,0.9,1.3,1.4,2
		c0.7,1.1,1.4,2.1,1.9,3.1L444.9,53.5z M258.5,44.6l-0.7-0.7c1.4-1.5,2.9-2.9,4.3-4.3l0.7,0.7C261.4,41.7,260,43.1,258.5,44.6z
		 M437.9,43.7c-1.3-1.5-2.6-3-4-4.5l0.7-0.7c1.4,1.5,2.8,3,4.1,4.6L437.9,43.7z M267.3,36.2l-0.7-0.8c1.5-1.4,3.1-2.7,4.7-3.9
		l0.6,0.8C270.4,33.5,268.8,34.9,267.3,36.2z M429.5,35c-1.5-1.3-3-2.6-4.6-3.9l0.6-0.8c1.6,1.3,3.2,2.6,4.7,3.9L429.5,35z
		 M276.7,28.6l-0.6-0.8c1.7-1.2,3.3-2.4,5-3.5l0.6,0.8C280,26.2,278.4,27.4,276.7,28.6z M420,27.6c-1.7-1.1-3.4-2.2-5.1-3.2l0.5-0.9
		c1.8,1,3.5,2.1,5.2,3.3L420,27.6z M286.8,22l-0.5-0.9c1.8-1,3.6-2,5.4-2.9l0.4,0.9C290.4,20,288.6,21,286.8,22z M409.6,21.4
		c-1.8-0.9-3.6-1.8-5.5-2.6l0.4-0.9c1.9,0.8,3.7,1.7,5.5,2.6L409.6,21.4z M297.7,16.6l-0.4-0.9c1.8-0.8,3.8-1.5,5.7-2.2l0.3,1
		C301.4,15.1,299.5,15.9,297.7,16.6z M398.5,16.5c-1.9-0.7-3.8-1.4-5.7-2l0.3-1c2,0.6,3.9,1.3,5.8,2L398.5,16.5z M387,12.8
		c-1.9-0.5-3.9-1-5.9-1.5l0.2-1c2,0.4,4,0.9,5.9,1.5L387,12.8z M309.1,12.7l-0.3-1c1.9-0.5,3.9-1,5.9-1.5l0.2,1
		C313,11.6,311,12.1,309.1,12.7z M375.2,10.1c-2-0.4-4-0.7-6-0.9l0.1-1c2,0.3,4,0.6,6,1L375.2,10.1z M320.9,10l-0.2-1
		c2-0.3,4-0.7,6-0.9l0.1,1C324.9,9.4,322.9,9.7,320.9,10z M363.2,8.4c-2-0.2-4-0.3-6-0.5l0.1-1c2,0.1,4.1,0.3,6.1,0.5L363.2,8.4z
		 M332.9,8.4l-0.1-1c2-0.2,4-0.3,6.1-0.5l0.2,1l-0.1,0C336.9,8.1,334.9,8.3,332.9,8.4z M345,7.7l0-1c2,0,4.1,0,6.1,0l0,1
		C349.1,7.7,347,7.7,345,7.7z"/>
	<path class="st0" d="M527.2,330.9c-10.3,17.6-26,31.2-44.9,39c-0.4,0.2-0.3,0.9,0.2,0.7c19.1-7.8,34.9-21.6,45.3-39.3
		C528.1,330.8,527.5,330.4,527.2,330.9z"/>
	<path class="st0" d="M538.7,321.5c-2.3,5.9-5.3,11.3-9.2,16.3c-0.3,0.4,0.4,0.8,0.7,0.4c3.9-5.1,6.9-10.6,9.2-16.5
		C539.6,321.3,538.9,321.1,538.7,321.5z"/>
</g>
<g id="DESIGNED_BY_FREEPIK">
</g>
</svg>
