<svg xmlns="http://www.w3.org/2000/svg" viewBox="0 0 45 45"><defs><style>.cls-1{fill:#afce9b;}.cls-2{fill:#80c196;}.cls-3{fill:#ededed;}.cls-4{fill:#d8d6db;}</style></defs><g id="Слой_2" data-name="Слой 2"><g id="Слой_2-2" data-name="Слой 2"><g id="icon"><path class="cls-1" d="M45,18.17V42.8a2.12,2.12,0,0,1-.74,1.62l-.06.06a2.3,2.3,0,0,1-1.47.52H2.27a2.24,2.24,0,0,1-1.45-.52s0,0-.07-.06A2.13,2.13,0,0,1,0,42.8V18.17A2,2,0,0,1,.6,16.7a2.1,2.1,0,0,1,.57-.46A2.33,2.33,0,0,1,2.27,16H42.73a2.43,2.43,0,0,1,1.68.71A2.19,2.19,0,0,1,45,18.17Z"/><path class="cls-2" d="M44.41,16.68c-.16.19-21.9,16.92-21.9,16.92L.6,16.7h0L21.27.43a2,2,0,0,1,2.48,0Z"/><path class="cls-3" d="M39.79,5.35V20.28L22.51,33.6,5.22,20.27V5.35Z"/><path class="cls-2" d="M44.26,44.42l-.07.06L24.73,31.92l1.78-1.39Z"/><path class="cls-2" d="M20.28,31.91.82,44.48a.16.16,0,0,1-.07-.07l17.74-13.9Z"/><path class="cls-4" d="M9.05,9.27H36V10.4H9.05Z"/><path class="cls-4" d="M9.05,13.62H36v1.13H9.05Z"/><path class="cls-4" d="M9.05,18H36V19.1H9.05Z"/><path class="cls-4" d="M13.57,22.33H31.43v1.13H13.57Z"/></g></g></g></svg>