<svg xmlns="http://www.w3.org/2000/svg" viewBox="0 0 45 45"><defs><style>.cls-1{fill:#e0dfda;}.cls-2{fill:#afce9b;}.cls-3{fill:#e0e0de;}.cls-4{fill:#bfb9af;}.cls-5{fill:#80c196;}</style></defs><g id="Слой_2" data-name="Слой 2"><g id="Слой_2-2" data-name="Слой 2"><path class="cls-1" d="M11,37.86c-3.78,0-7.8,1.25-7.8,3.57S7.26,45,11,45s7.81-1.25,7.81-3.57S14.83,37.86,11,37.86Z"/><path class="cls-2" d="M11,13.53a11,11,0,0,0-11,11c0,3.78,1.8,7.84,5.35,12.07a37.34,37.34,0,0,0,5.29,5.2A.61.61,0,0,0,11,42a.62.62,0,0,0,.41-.14,37.34,37.34,0,0,0,5.29-5.2c3.55-4.23,5.35-8.29,5.35-12.07A11.06,11.06,0,0,0,11,13.53Zm4.14,11A4.14,4.14,0,1,1,11,20.42,4.14,4.14,0,0,1,15.18,24.56Z"/><path class="cls-3" d="M40.49,19.41a11.14,11.14,0,0,0-4.13-.71,11.14,11.14,0,0,0-4.13.71c-1.31.53-2,1.31-2,2.19s.71,1.66,2,2.19a11.15,11.15,0,0,0,4.13.7,11.15,11.15,0,0,0,4.13-.7c1.3-.53,2-1.31,2-2.19S41.79,19.94,40.49,19.41Z"/><path class="cls-4" d="M11,43.35c-3.31,0-6.79-1-7.62-2.74a1.89,1.89,0,0,0-.18.82c0,2.32,4,3.57,7.8,3.57s7.81-1.25,7.81-3.57a1.89,1.89,0,0,0-.18-.82C17.84,42.4,14.35,43.35,11,43.35Z"/><path class="cls-4" d="M40.49,22.14a11.14,11.14,0,0,1-4.13.71,11.14,11.14,0,0,1-4.13-.71,3.49,3.49,0,0,1-1.8-1.37,1.66,1.66,0,0,0-.22.83c0,.88.71,1.66,2,2.19a11.15,11.15,0,0,0,4.13.7,11.15,11.15,0,0,0,4.13-.7c1.3-.53,2-1.31,2-2.19a1.78,1.78,0,0,0-.22-.83A3.49,3.49,0,0,1,40.49,22.14Z"/><path class="cls-2" d="M36.36,0a8.65,8.65,0,0,0-8.64,8.63c0,2.94,1.39,6.1,4.14,9.38A29.13,29.13,0,0,0,36,22a.65.65,0,0,0,.4.14.67.67,0,0,0,.4-.14,29.13,29.13,0,0,0,4.1-4C43.61,14.73,45,11.57,45,8.63A8.65,8.65,0,0,0,36.36,0Zm3.18,8.63a3.18,3.18,0,1,1-3.18-3.18A3.18,3.18,0,0,1,39.54,8.63Z"/><path class="cls-5" d="M21.29,42.09a.66.66,0,0,1,0-1.32h.87a.66.66,0,1,1,0,1.32Zm3.49,0a.66.66,0,0,1-.66-.66.65.65,0,0,1,.65-.66h.88a.66.66,0,1,1,0,1.32Zm3.49,0a.66.66,0,0,1,0-1.32h.88a.66.66,0,0,1,.66.65.67.67,0,0,1-.66.67Zm3.49,0a.65.65,0,0,1-.66-.65.66.66,0,0,1,.65-.67h.88a.66.66,0,1,1,0,1.32Zm3.49,0a.66.66,0,0,1-.66-.66.65.65,0,0,1,.65-.66h.88a.67.67,0,0,1,.66.66.65.65,0,0,1-.66.66Zm3.49,0a.66.66,0,1,1,0-1.32h.13a4.63,4.63,0,0,0,.65,0A.66.66,0,1,1,39.7,42a5.93,5.93,0,0,1-.84.06ZM42,41a.66.66,0,0,1-.38-1.2,4.75,4.75,0,0,0,.6-.49.66.66,0,0,1,.91,1,6.24,6.24,0,0,1-.75.61A.68.68,0,0,1,42,41Zm2.09-2.72a.85.85,0,0,1-.22,0,.65.65,0,0,1-.4-.84,6.37,6.37,0,0,0,.2-.75.66.66,0,0,1,.77-.52.67.67,0,0,1,.53.77,6.24,6.24,0,0,1-.26.94A.65.65,0,0,1,44.11,38.3Zm.11-3.43a.67.67,0,0,1-.64-.48,4.82,4.82,0,0,0-.27-.72.66.66,0,0,1,1.2-.56,6.38,6.38,0,0,1,.34.92.65.65,0,0,1-.45.81ZM42.3,32a.64.64,0,0,1-.41-.14,4.77,4.77,0,0,0-.64-.43.66.66,0,1,1,.65-1.15,6.34,6.34,0,0,1,.81.54.66.66,0,0,1,.11.93A.64.64,0,0,1,42.3,32Zm-3.21-1.19h-.88a.66.66,0,0,1,0-1.32h.9a.66.66,0,0,1,0,1.32Zm-3.49,0h-.88a.66.66,0,0,1,0-1.32h.88a.66.66,0,0,1,0,1.32Zm-3.49,0h-.88a.66.66,0,0,1,0-1.32h.88a.66.66,0,0,1,0,1.32Zm-3.49,0h-.87a.66.66,0,1,1,0-1.32h.87a.66.66,0,0,1,0,1.32Zm-3.37-.66a.64.64,0,0,1-.35-.1,4.69,4.69,0,0,1-.79-.62.66.66,0,0,1,0-.93.67.67,0,0,1,.94,0,3.26,3.26,0,0,0,.58.46.66.66,0,0,1,.2.91A.64.64,0,0,1,25.25,30.16Zm-1.92-2.79a.65.65,0,0,1-.64-.53,4.38,4.38,0,0,1-.1-.95v-.05a.67.67,0,0,1,.66-.66h0a.67.67,0,0,1,.66.67v0a3.93,3.93,0,0,0,.06.69.66.66,0,0,1-.52.78Zm.72-3.31a.62.62,0,0,1-.38-.13.66.66,0,0,1-.15-.92,5.21,5.21,0,0,1,.66-.75.66.66,0,0,1,.94,0,.65.65,0,0,1,0,.93,4.28,4.28,0,0,0-.49.55A.66.66,0,0,1,24.05,24.06ZM27,22.31a.66.66,0,0,1-.65-.57.65.65,0,0,1,.57-.74,4.62,4.62,0,0,1,.65-.05h.3a.66.66,0,0,1,0,1.32h-.3a2.59,2.59,0,0,0-.48,0Z"/><path class="cls-5" d="M11,13.53a10.19,10.19,0,0,0-1.24.07,11,11,0,0,1,9.8,11c0,3.78-1.8,7.84-5.35,12.07A39.49,39.49,0,0,1,9.8,41.14c.49.42.8.67.84.69A.61.61,0,0,0,11,42a.62.62,0,0,0,.41-.14,37.34,37.34,0,0,0,5.29-5.2c3.55-4.23,5.35-8.29,5.35-12.07A11.06,11.06,0,0,0,11,13.53Z"/><path class="cls-5" d="M36.36,0a8.42,8.42,0,0,0-1.24.09,8.64,8.64,0,0,1,7.39,8.54c0,2.94-1.39,6.1-4.14,9.38a31.52,31.52,0,0,1-3.25,3.32c.49.43.8.67.84.7a.65.65,0,0,0,.4.14.67.67,0,0,0,.4-.14,29.13,29.13,0,0,0,4.1-4C43.61,14.73,45,11.57,45,8.63A8.65,8.65,0,0,0,36.36,0Z"/></g></g></svg>