<svg xmlns="http://www.w3.org/2000/svg" viewBox="0 0 33.23 8.73"><defs><style>.cls-1{fill:#80c196;}.cls-2{fill:#afce9b;}</style></defs><g id="Слой_2" data-name="Слой 2"><g id="Слой_3" data-name="Слой 3"><path class="cls-1" d="M16.62,0a4.28,4.28,0,0,0-4.16,4.37,4.27,4.27,0,0,0,4.16,4.36,4.27,4.27,0,0,0,4.15-4.36A4.27,4.27,0,0,0,16.62,0Z"/><path class="cls-2" d="M16.62,0a4.28,4.28,0,0,0-4.16,4.37,4.27,4.27,0,0,0,4.16,4.36Z"/><path class="cls-1" d="M4.15,0A4.27,4.27,0,0,0,0,4.37,4.27,4.27,0,0,0,4.15,8.73,4.27,4.27,0,0,0,8.31,4.37,4.28,4.28,0,0,0,4.15,0Z"/><path class="cls-2" d="M4.15,0A4.27,4.27,0,0,0,0,4.37,4.27,4.27,0,0,0,4.15,8.73Z"/><path class="cls-1" d="M29.08,0a4.28,4.28,0,0,0-4.16,4.37,4.16,4.16,0,1,0,8.31,0A4.27,4.27,0,0,0,29.08,0Z"/><path class="cls-2" d="M29.08,0a4.28,4.28,0,0,0-4.16,4.37,4.27,4.27,0,0,0,4.16,4.36Z"/></g></g></svg>