<svg xmlns="http://www.w3.org/2000/svg" viewBox="0 0 45 45"><defs><style>.cls-1{fill:#b8c4ae;}.cls-2{fill:#cad8bf;}.cls-3{fill:#e6f9d9;}.cls-4{fill:#afce9b;}.cls-5{fill:#80c196;}.cls-6{fill:#959596;}</style></defs><g id="Слой_2" data-name="Слой 2"><g id="Слой_2-2" data-name="Слой 2"><path class="cls-1" d="M36,12.59h9V41.76a3.43,3.43,0,0,1-.85,2.29,2.77,2.77,0,0,1-2.07,1c-1.61,0-6.1-1.45-6.1-3.24"/><path class="cls-2" d="M42.08,45H11.68a3.09,3.09,0,0,1-2.92-3.24V38.3l22.18-37L36.24,0a2.77,2.77,0,0,1,2.07,1,3.43,3.43,0,0,1,.85,2.29V41.76A3.09,3.09,0,0,0,42.08,45Z"/><path class="cls-3" d="M33.32,37.82V3.24A3.09,3.09,0,0,1,36.24,0H2.92A3.09,3.09,0,0,0,0,3.24V38.3H33.32"/><path class="cls-4" d="M3.84,5.57H14.23v9.11H3.84Z"/><path class="cls-5" d="M14.23,15.43H3.84a.72.72,0,0,1-.68-.75V5.57a.73.73,0,0,1,.68-.76H14.23a.73.73,0,0,1,.68.76v9.11A.72.72,0,0,1,14.23,15.43Zm-9.71-1.5h9V6.32h-9Z"/><path class="cls-4" d="M18.92,19.24H29.3v9.11H18.92Z"/><path class="cls-6" d="M14.23,20H3.84a.76.76,0,0,1,0-1.51H14.23a.76.76,0,0,1,0,1.51Z"/><path class="cls-6" d="M14.23,24.54H3.84a.75.75,0,0,1,0-1.5H14.23a.75.75,0,0,1,0,1.5Z"/><path class="cls-6" d="M14.23,29.1H3.84a.75.75,0,0,1,0-1.5H14.23a.75.75,0,0,1,0,1.5Z"/><path class="cls-6" d="M14.23,33.66H3.84a.76.76,0,0,1,0-1.51H14.23a.76.76,0,0,1,0,1.51Z"/><path class="cls-6" d="M29.3,6.32H18.92a.72.72,0,0,1-.68-.75.72.72,0,0,1,.68-.76H29.3a.72.72,0,0,1,.68.76A.72.72,0,0,1,29.3,6.32Z"/><path class="cls-6" d="M29.3,10.88H18.92a.76.76,0,0,1,0-1.51H29.3a.76.76,0,0,1,0,1.51Z"/><path class="cls-6" d="M29.3,15.43H18.92a.75.75,0,0,1,0-1.5H29.3a.75.75,0,0,1,0,1.5Z"/><path class="cls-5" d="M29.3,29.1H18.92a.72.72,0,0,1-.68-.75V19.24a.72.72,0,0,1,.68-.76H29.3a.72.72,0,0,1,.68.76v9.11A.72.72,0,0,1,29.3,29.1Zm-9.71-1.5h9V20h-9Z"/><path class="cls-6" d="M29.3,33.66H18.92a.76.76,0,0,1,0-1.51H29.3a.76.76,0,0,1,0,1.51Z"/></g></g></svg>