<svg xmlns="http://www.w3.org/2000/svg" viewBox="0 0 45 45"><defs><style>.cls-1{fill:#80c196;}.cls-2{fill:#afce9b;}</style></defs><g id="Слой_2" data-name="Слой 2"><g id="Слой_2-2" data-name="Слой 2"><path class="cls-1" d="M11.72,35.8a7.1,7.1,0,0,1-6.64-5.22L5,30.34a8,8,0,0,1-.32-2.21V14.18L.14,30.74a4.71,4.71,0,0,0,3,5.64l29,8.47A4,4,0,0,0,33.2,45a4.26,4.26,0,0,0,4-3.34l1.69-5.86Z"/><path class="cls-1" d="M16.87,14.32a3.94,3.94,0,0,0,3.75-4.09,3.93,3.93,0,0,0-3.75-4.09,3.94,3.94,0,0,0-3.75,4.09A3.94,3.94,0,0,0,16.87,14.32Z"/><path class="cls-2" d="M40.31,0H12.19A4.92,4.92,0,0,0,7.5,5.11v22.5a4.92,4.92,0,0,0,4.69,5.12H40.31A4.92,4.92,0,0,0,45,27.61V5.11A4.92,4.92,0,0,0,40.31,0ZM12.19,4.09H40.31a1,1,0,0,1,.94,1V19.63l-5.92-7.54a3.25,3.25,0,0,0-2.52-1.25,3.13,3.13,0,0,0-2.5,1.29l-7,9.12-2.27-2.47a3.1,3.1,0,0,0-4.65,0l-5.17,5.64V5.11A1,1,0,0,1,12.19,4.09Z"/></g></g></svg>