<svg xmlns="http://www.w3.org/2000/svg" viewBox="0 0 69.83 69.83"><defs><style>.cls-1{fill:#d8ddd3;}.cls-2{fill:#bcc1b6;}.cls-3{fill:#edebed;}.cls-4{fill:#afce9b;}.cls-5{fill:#77b788;}.cls-6{fill:#e0dee2;}.cls-7{fill:#a0bf8c;}.cls-8{fill:#66af7c;}.cls-9{fill:#daf2c7;}.cls-10{fill:#c6dbb2;}</style></defs><g id="Слой_2" data-name="Слой 2"><g id="Слой_4" data-name="Слой 4"><path class="cls-1" d="M69.26,28.61C67.15,29,65,30.69,62.9,30.87c-6.17.52-12.4,0-18.59.14s-12.38,1.09-18.56.91S13.43,30.49,7.26,30c-2.2-.19-4.4-1.69-6.61-1.77C.9,26.89,4.19,26.27,4.59,25c.52-1.67-1.79-3.94-1-5.49,10.32.32,20.65-1.09,31-1.41a46.2,46.2,0,0,1,9.34.65,46,46,0,0,0,8,.68c1.34,0,2.68-.05,4-.17,3.5-.3,7,.77,10.48.39a34.73,34.73,0,0,1,2.93,8.94Z"/><path class="cls-2" d="M15,19.76a34.88,34.88,0,0,0-1.6,5.62,34.23,34.23,0,0,0-.52,3.81c-1.88-.25-3.76-.48-5.65-.64-2.2-.18-4.4-.28-6.61-.36a34.51,34.51,0,0,1,2.91-8.66q5.74.18,11.47.23Z"/><path class="cls-3" d="M69.83,34.91c0,.46,0,.91,0,1.36-2.29.41-4.59,2.16-6.9,2.36-6.17.52-12.4,0-18.59.14s-12.38,1.08-18.56.91-12.32-1.44-18.49-2C4.85,37.51,2.44,36,0,35.93c0-.34,3.54-2.62,3.54-3,0-2.3-3.34-2.6-2.91-4.78,2.21.08,4.41.18,6.61.36,6.17.53,12.3,1.79,18.49,2s12.38-.73,18.56-.91,12.42.39,18.59-.13c2.13-.19,4.25-.5,6.36-.86a35.32,35.32,0,0,1,.57,6.3Z"/><path class="cls-4" d="M66.33,19.67c-3.49.38-7,.71-10.48,1-1.34.11-2.68.17-4,.17a47,47,0,0,1-8-.68,46.21,46.21,0,0,0-9.34-.66q-15.48.5-31,0c1.09-2.22,6.65-1.27,8.17-3.19,1.14-1.45-1.84-5.84-.48-7.09,4.07.32,7.65-.83,10-.67a4.47,4.47,0,0,1,3.23,1.66,3.62,3.62,0,0,0,2.85,1.27A3.69,3.69,0,0,0,30,10.39a4.54,4.54,0,0,1,3.36-1.54c8.46,0,16.92,1.16,25.37.54a35.19,35.19,0,0,1,7.59,10.28Z"/><path class="cls-5" d="M58.74,9.39q-12.68.93-25.37.87A4.51,4.51,0,0,0,30,11.8a3.69,3.69,0,0,1-2.73,1.12,3.6,3.6,0,0,1-2.85-1.28A4.46,4.46,0,0,0,21.2,10c-2.3-.16-5.88-.42-9.95-.74,2.32-2.15,6.21-1.54,9.05-3C24.55,4.08,28,.31,33.07.05c.61,0,1.22,0,1.84,0A34.83,34.83,0,0,1,58.74,9.39Z"/><path class="cls-6" d="M13.12,37c-1.95-.26-3.9-.5-5.86-.67C4.85,36.11,2.44,36,0,35.93c0-.34,0-.68,0-1a34.65,34.65,0,0,1,.65-6.72c2.21.08,4.41.18,6.61.36,1.89.16,3.77.39,5.65.64q-.12,1.44-.12,2.91c0,.34,0,.68,0,1A37.9,37.9,0,0,0,13.12,37Z"/><path class="cls-7" d="M20.71,10a34.77,34.77,0,0,0-4.36,6.77,32.82,32.82,0,0,0-1.32,3q-5.73,0-11.47-.23A35.07,35.07,0,0,1,11.25,9.25C15,9.55,18.41,9.79,20.71,10Z"/><path class="cls-8" d="M33.93,0A34.94,34.94,0,0,0,24,6.44,36.73,36.73,0,0,0,20.71,10c-2.3-.16-5.67-.4-9.46-.7A34.76,34.76,0,0,1,33.93,0Z"/><path class="cls-5" d="M39.82,19.35c-.06,1.76,1.33,2.42,3.62,2.5s3.67-.55,3.89-2.19a2.13,2.13,0,0,0,0-.25c.06-1.77-1.75-3.26-4-3.34a5.07,5.07,0,0,0-2.54.57c-1,.55-.92,1.67-1,2.71Z"/><path class="cls-8" d="M47.33,19.66c-.22,1.64-2,2.87-4.23,2.8s-4.1-1.57-4-3.34a3.23,3.23,0,0,1,2.41-2.78,2.06,2.06,0,0,0,0,.26c-.06,1.76,1.75,3.25,4,3.33A5,5,0,0,0,47.33,19.66Z"/><path class="cls-4" d="M69.8,36.27A34.74,34.74,0,0,1,67,48.61h0c-3.36.33-6.71,2-10.07,2.22a11,11,0,0,1-7.58-2.3,10.76,10.76,0,0,0-6.68-2.23H42.3a11,11,0,0,0-6.59,2.42l0,0a11.39,11.39,0,0,1-7.54,2.7c-8.48-.19-17-2.12-25.4-3C2,46.8,5,44.58,4.59,42.78,4,40.42.09,38.44,0,35.93c2.42.09,4.83.18,7.24.38,6.17.53,12.3,1.79,18.49,2s12.38-.73,18.56-.91,12.42.39,18.59-.14c2.31-.19,4.61-.54,6.9-.95Z"/><path class="cls-7" d="M17.5,49.63q-7.39-.41-14.76-1.14A34.61,34.61,0,0,1,0,35.93c2.42.09,4.83.18,7.24.38,2,.17,3.91.41,5.86.67A34.46,34.46,0,0,0,17.5,49.63Z"/><path class="cls-5" d="M11,37c-.08,1.46.65,2.08,2.55,2.19,1.43.09,2.69,0,3.27-.89a2.16,2.16,0,0,0,.33-1c.09-1.46-1.38-2.74-3.28-2.85a4.45,4.45,0,0,0-1,.06C11.45,34.72,11.11,35.79,11,37Z"/><path class="cls-8" d="M16.88,38.25a3.55,3.55,0,0,1-3.29,1.46c-1.9-.11-3.37-1.39-3.28-2.85a2.83,2.83,0,0,1,2.56-2.39,2.13,2.13,0,0,0-.31,1c-.09,1.47,1.38,2.74,3.28,2.86A4.45,4.45,0,0,0,16.88,38.25Z"/><path class="cls-9" d="M67,48.61a34.65,34.65,0,0,1-4.91,8.17c-1.93.16-3.86,1.71-5.79,1.83a11.08,11.08,0,0,0-6.61,2.68,2.11,2.11,0,0,1-.23.19,10.94,10.94,0,0,1-6.59,2.43H42.5a10.72,10.72,0,0,1-6.71-2.26A11.14,11.14,0,0,0,29,59.23c-7.13-.13-14.26-1.9-21.38-2.5h0c-1-1.25,1.63-3.91.81-5.28s-5.09-1.47-5.72-3Q15.4,49.75,28.14,50a11.34,11.34,0,0,0,7.54-2.7l0,0A10.87,10.87,0,0,1,42.3,44.9h.41a10.7,10.7,0,0,1,6.68,2.24A11.1,11.1,0,0,0,57,49.43c3.36-.22,6.71-.49,10.07-.82Z"/><path class="cls-10" d="M24,57.69q-8.16-.27-16.3-1h0a35.1,35.1,0,0,1-4.91-8.24q7.37.73,14.76,1.14a33.21,33.21,0,0,0,2.94,4.29h0A34.74,34.74,0,0,0,24,57.69Z"/><path class="cls-5" d="M48.64,53.49a3.11,3.11,0,0,1-.1.86C48.05,56.3,46,57,43,57.07c-3.33.12-5.51-.7-5.59-3-.06-1.59.26-3.13,2.07-3.92a8,8,0,0,1,2.94-.65c3.33-.12,6.09,1.69,6.18,4Z"/><path class="cls-8" d="M48.51,54.48c-.57,1.89-2.91,3.36-5.76,3.46-3.33.11-6.09-1.69-6.17-4-.06-1.59,1.13-3,2.94-3.8a3,3,0,0,0-.13,1c.08,2.34,2.84,4.14,6.17,4a8.13,8.13,0,0,0,2.95-.65Z"/><path class="cls-4" d="M62.13,56.78A35,35,0,0,1,48.69,67c-4.23,1.82-8.91.83-13.8.83-11,0-14.9-1-21.3-9,5.43.45,4.92-1.29,10.36-1.11,1.69.06,3.39.11,5.08.14a11.13,11.13,0,0,1,6.76,2.41,10.73,10.73,0,0,0,6.71,2.27h.41a11,11,0,0,0,6.59-2.42l.23-.19a11,11,0,0,1,6.61-2.68q2.89-.2,5.79-.43Z"/><path class="cls-7" d="M48.69,67a34.93,34.93,0,0,1-41-10.27q8.15.69,16.3,1A34.78,34.78,0,0,0,47.7,67Z"/></g></g></svg>