<svg xmlns="http://www.w3.org/2000/svg" viewBox="0 0 68.18 68.18"><defs><style>.cls-1{fill:#e5e5e5;}.cls-2{fill:#80aa8d;}.cls-3{fill:#4d5a64;}.cls-4{fill:#afce9b;}.cls-5{fill:#f9f9f9;}</style></defs><g id="Слой_2" data-name="Слой 2"><g id="Слой_4" data-name="Слой 4"><path class="cls-1" d="M61.07,11.36h-27a1.69,1.69,0,0,0-.45.07l-.34.12a1.41,1.41,0,0,0-.9,1.79v0L46.68,55.08l-9.4,10.74a1.42,1.42,0,0,0,.13,2,1.46,1.46,0,0,0,.94.35H61.07a7.11,7.11,0,0,0,7.11-7.11V18.46A7.1,7.1,0,0,0,61.07,11.36Z"/><path class="cls-2" d="M49.58,54.81A1.41,1.41,0,0,0,48.29,54H34.09a1.42,1.42,0,0,0-1.33,1.92L37,67.26a1.43,1.43,0,0,0,1.08.89,1,1,0,0,0,.25,0,1.42,1.42,0,0,0,1.07-.49l9.94-11.36A1.41,1.41,0,0,0,49.58,54.81Z"/><path class="cls-3" d="M61.07,31.25H41.19a1.42,1.42,0,1,1,0-2.84H61.07a1.42,1.42,0,1,1,0,2.84Z"/><path class="cls-3" d="M49.71,31.25a1.43,1.43,0,0,1-1.42-1.42V27a1.42,1.42,0,0,1,2.84,0v2.84A1.42,1.42,0,0,1,49.71,31.25Z"/><path class="cls-3" d="M45.45,48.29A1.43,1.43,0,0,1,44,46.87a1.39,1.39,0,0,1,.6-1.15c6.22-4.42,10.76-13.44,10.76-15.89a1.42,1.42,0,1,1,2.84,0c0,3.74-5.47,13.59-12,18.2A1.4,1.4,0,0,1,45.45,48.29Z"/><path class="cls-3" d="M56.81,51.13a1.44,1.44,0,0,1-1-.37c-1-.94-10.1-9.33-11.71-13.3a1.42,1.42,0,0,1,2.63-1.07c1.16,2.87,8.34,9.83,11,12.27a1.42,1.42,0,0,1,.09,2A1.41,1.41,0,0,1,56.81,51.13Z"/><path class="cls-4" d="M49.64,54.93,31.17,1a1.43,1.43,0,0,0-1.34-1H7.1A7.1,7.1,0,0,0,0,7.1V49.71a7.1,7.1,0,0,0,7.1,7.1H48.29a1.41,1.41,0,0,0,1.42-1.42A1.47,1.47,0,0,0,49.64,54.93Z"/><path class="cls-5" d="M27,39.77a1.43,1.43,0,0,1-1.34-.94L19.88,22.69,14.12,38.83a1.42,1.42,0,0,1-2.67-1L18.55,18a1.48,1.48,0,0,1,2-.71,1.46,1.46,0,0,1,.7.71l7.1,19.88a1.42,1.42,0,0,1-.85,1.82A1.56,1.56,0,0,1,27,39.77Z"/><path class="cls-5" d="M22.73,31.25H17a1.42,1.42,0,1,1,0-2.84h5.69a1.42,1.42,0,0,1,0,2.84Z"/></g></g></svg>