<svg xmlns="http://www.w3.org/2000/svg" viewBox="0 0 51.8 51.85"><defs><style>.cls-1{fill:#7ea4a4;}.cls-2{fill:#8fc781;}.cls-3{fill:#8bb7a4;}.cls-4{fill:#92dbb2;}.cls-5{fill:#3e4a5d;}.cls-6{fill:#fff;}.cls-7{fill:#354050;}</style></defs><g id="Слой_2" data-name="Слой 2"><g id="Слой_4" data-name="Слой 4"><g id="_002---Astronaut-Floating" data-name="002---Astronaut-Floating"><path id="Shape" class="cls-1" d="M14.92,35.75c-3.74,1.25-10,8-10.11,8-1.34,1.34-3.24,1.64-4.21.67a2.55,2.55,0,0,1-.3-2.84,55,55,0,0,1,10.3-15Z"/><path id="Shape-2" data-name="Shape" class="cls-1" d="M25.19,41.24a54.16,54.16,0,0,1-15,10.3,2.53,2.53,0,0,1-2.84-.29c-1-1-.67-2.87.67-4.21.08-.09,6.81-6.34,8.1-10.13Z"/><path id="Shape-3" data-name="Shape" class="cls-1" d="M22.34,18.64l-5.65,2.08a23.11,23.11,0,0,1-2.21-2.9c-2.41-3.79-2.1-6.36-2-7s-.06-.12,3.58-6.77A2.81,2.81,0,1,1,21,6.82L18,12.18c.32,2,2.36,4.46,3.81,5.91a2.88,2.88,0,0,1,.49.55Z"/><path id="Shape-4" data-name="Shape" class="cls-1" d="M47.77,35.75c-6.61,3.66-6.26,3.51-6.79,3.57s-3.16.43-7-2a20.66,20.66,0,0,1-2.89-2.21l2.08-5.64a8.3,8.3,0,0,1,1.47,1.3c1.32,1.16,3.31,2.68,5,3L45,30.8a2.83,2.83,0,0,1,2.74,4.95Z"/><path id="Shape-5" data-name="Shape" class="cls-2" d="M10.6,26.65l4.32,9.1a10.23,10.23,0,0,0-2,1c-2.8-3.09-4-5.75-4.2-8C9.61,27.7,10.28,27,10.6,26.65Z"/><path id="Shape-6" data-name="Shape" class="cls-2" d="M16.67,20.72c-.43-.48-.82-1-1.17-1.41A42.1,42.1,0,0,1,21,17.15c.9,1,1,1,1.3,1.49Z"/><path id="Shape-7" data-name="Shape" class="cls-2" d="M16.08,36.91l9.07,4.33c-.32.31-1,1-2.06,1.88-2.54-.22-5.18-1.6-8-4.2a9.54,9.54,0,0,0,1-2Z"/><path id="Shape-8" data-name="Shape" class="cls-2" d="M34.68,30.82a38.43,38.43,0,0,1-2.14,5.52c-.46-.35-.89-.74-1.41-1.17l2.08-5.68a8.46,8.46,0,0,1,1.47,1.33Z"/><path id="Shape-9" data-name="Shape" class="cls-3" d="M33.77,27.44a43.39,43.39,0,0,1-2.68,7.73C27.25,43.39,21.6,43,15.21,36.6S8.46,24.54,16.64,20.72A43.81,43.81,0,0,1,24.36,18Z"/><rect id="Rectangle-path" class="cls-4" x="19.32" y="23.62" width="8.43" height="9.37" rx="0.89" transform="translate(-13.12 24.93) rotate(-45)"/><path id="Shape-10" data-name="Shape" class="cls-3" d="M25.85,29.55c-.45,0-.59-.23-1.3-.9a.89.89,0,0,1,.64-1.52.88.88,0,0,1,.63.26l.66.66a.88.88,0,0,1,.16.95.9.9,0,0,1-.79.55Z"/><path id="Shape-11" data-name="Shape" class="cls-3" d="M23.87,31.53c-.46,0-.59-.22-1.3-.89a.9.9,0,0,1-.26-.64.86.86,0,0,1,.26-.63.89.89,0,0,1,1.26,0l.66.66a.88.88,0,0,1,.17.95.9.9,0,0,1-.79.55Z"/><path id="Shape-12" data-name="Shape" class="cls-4" d="M5.36,6a.89.89,0,0,1-.89-.9V1.49a.9.9,0,0,1,1.79,0V5.06A.9.9,0,0,1,5.36,6Z"/><path id="Shape-13" data-name="Shape" class="cls-4" d="M7.15,4.17H3.57a.9.9,0,0,1,0-1.79H7.15a.9.9,0,0,1,0,1.79Z"/><path id="Shape-14" data-name="Shape" class="cls-4" d="M42.89,49.71a.89.89,0,0,1-.9-.89V45.24a.9.9,0,0,1,1.79,0v3.58A.89.89,0,0,1,42.89,49.71Z"/><path id="Shape-15" data-name="Shape" class="cls-4" d="M44.67,47.92H41.1a.89.89,0,1,1,0-1.78h3.57a.89.89,0,1,1,0,1.78Z"/><path id="Shape-16" data-name="Shape" class="cls-4" d="M2.68,21.14a.89.89,0,0,1-.89-.9V16.67a.89.89,0,0,1,1.78,0v3.57A.89.89,0,0,1,2.68,21.14Z"/><path id="Shape-17" data-name="Shape" class="cls-4" d="M4.47,19.35H.89a.9.9,0,0,1,0-1.79H4.47a.9.9,0,0,1,0,1.79Z"/><path id="Shape-18" data-name="Shape" class="cls-2" d="M50.18,20s-3.45,4.35-3.58,4.47a11.3,11.3,0,0,1-16.44.6L26.8,21.65A11.3,11.3,0,0,1,27.39,5.2c.28-.26.4-.34,4.46-3.58a7.5,7.5,0,0,1,10,.58L49.6,10a7.5,7.5,0,0,1,.58,10Z"/><path id="Shape-19" data-name="Shape" class="cls-1" d="M50.18,20s-3.45,4.35-3.58,4.47a11.26,11.26,0,0,1-15.28-.57L28,20.49A11.24,11.24,0,0,1,27.39,5.2c.21-.2.36-.31,4.46-3.58a7.5,7.5,0,0,1,10,.58L49.6,10a7.5,7.5,0,0,1,.58,10Z"/><path id="Shape-20" data-name="Shape" class="cls-5" d="M47.25,17.62,44,21.72a7.48,7.48,0,0,1-11.17.62L29.48,19a7.48,7.48,0,0,1-.13-10.46c.51-.54.69-.64,4.87-4a3.75,3.75,0,0,1,5,.29L47,12.64a3.77,3.77,0,0,1,.26,5Z"/><path id="Shape-21" data-name="Shape" class="cls-6" d="M37.78,8.33a.89.89,0,1,1,.83-.54.88.88,0,0,1-.83.54Z"/><path id="Shape-22" data-name="Shape" class="cls-6" d="M44.41,15a1,1,0,0,1-.63-.26l-4-4a.89.89,0,0,1,0-1.26.89.89,0,0,1,1.26,0l4,3.94A.9.9,0,0,1,44.41,15Z"/><path id="Shape-23" data-name="Shape" class="cls-7" d="M44.05,21.65a7.48,7.48,0,0,1-11.23.69L29.48,19a7.48,7.48,0,0,1-.13-10.46c5,1.09,11.4,4.28,14.7,13.12Z"/></g></g></g></svg>