<svg xmlns="http://www.w3.org/2000/svg" viewBox="0 0 50 37.02"><defs><style>.cls-1{fill:#80c196;}.cls-2{fill:#fff;}</style></defs><g id="Слой_2" data-name="Слой 2"><g id="Слой_2-2" data-name="Слой 2"><path class="cls-1" d="M49,5.79a6.48,6.48,0,0,0-4.41-4.66C40.65,0,25,0,25,0S9.35,0,5.44,1.09A6.61,6.61,0,0,0,1,5.79C0,9.93,0,18.51,0,18.51s0,8.62,1,12.72a6.46,6.46,0,0,0,4.41,4.66C9.39,37,25,37,25,37s15.65,0,19.56-1.09A6.46,6.46,0,0,0,49,31.27c1-4.14,1-12.72,1-12.72S50,9.93,49,5.79Z"/><path class="cls-2" d="M22.43,25l8.18-5a1.77,1.77,0,0,0,0-3l-8.18-5A1.61,1.61,0,0,0,20,13.53v10A1.61,1.61,0,0,0,22.43,25Z"/></g></g></svg>